<svg width="26" height="26" viewBox="0 0 26 26" fill="none" xmlns="http://www.w3.org/2000/svg">
<path d="M21.7216 11.5159L16.6624 9.33844L15.5358 8.86177C15.3624 8.7751 15.2108 8.5476 15.2108 8.3526V5.0376C15.2108 3.9976 14.4416 2.7626 13.5099 2.28594C13.1849 2.12344 12.7949 2.12344 12.4699 2.28594C11.5491 2.7626 10.7799 4.00844 10.7799 5.04844V8.36344C10.7799 8.55844 10.6283 8.78594 10.4549 8.8726L4.27992 11.5268C3.59742 11.8084 3.04492 12.6643 3.04492 13.4009V14.8309C3.04492 15.7518 3.73826 16.2068 4.59409 15.8384L10.0216 13.4984C10.4441 13.3143 10.7908 13.5418 10.7908 14.0076V15.2101V17.1601C10.7908 17.4093 10.6499 17.7668 10.4766 17.9401L7.96326 20.4643C7.70326 20.7243 7.58409 21.2334 7.70326 21.6018L8.19076 23.0751C8.38576 23.7143 9.11159 24.0176 9.70742 23.7143L12.2858 21.5476C12.6758 21.2118 13.3149 21.2118 13.7049 21.5476L16.2833 23.7143C16.8791 24.0068 17.6049 23.7143 17.8216 23.0751L18.3091 21.6018C18.4283 21.2443 18.3091 20.7243 18.0491 20.4643L15.5358 17.9401C15.3516 17.7668 15.2108 17.4093 15.2108 17.1601V14.0076C15.2108 13.5418 15.5466 13.3251 15.9799 13.4984L21.4074 15.8384C22.2633 16.2068 22.9566 15.7518 22.9566 14.8309V13.4009C22.9566 12.6643 22.4041 11.8084 21.7216 11.5159Z" fill="white"/>
</svg>
