<svg width="28" height="24" viewBox="0 0 28 24" fill="none" xmlns="http://www.w3.org/2000/svg">
<path fill-rule="evenodd" clip-rule="evenodd" d="M16.2436 11.2825C16.5946 12.5924 17.4494 13.6397 18.5439 14.2716C19.5687 14.8634 20.8038 15.0913 22.0318 14.8299L21.9666 14.5866C21.9299 14.4489 22.0116 14.3075 22.1493 14.2705H22.1496C22.2873 14.2338 22.429 14.3155 22.4657 14.4535L22.5308 14.6961C23.7252 14.3084 24.6806 13.4938 25.2721 12.4693C25.9043 11.3745 26.1211 10.04 25.77 8.73014L23.4308 0C23.4595 0.13372 23.3784 0.268299 23.2447 0.303865L23.2444 0.30358L22.9952 0.370442L14.4668 2.65568L14.2304 2.71912L14.2173 2.72311C14.0838 2.75895 13.9467 2.68327 13.9043 2.55354L16.2433 11.2829L16.2436 11.2825Z" fill="white"/>
<path d="M22.4668 14.4538C22.4301 14.3161 22.2884 14.2341 22.1507 14.2708C22.013 14.3076 21.931 14.4492 21.9677 14.5869L23.9073 21.825C23.944 21.9627 24.0857 22.0447 24.2234 22.008C24.3611 21.9713 24.443 21.8296 24.4063 21.6919L22.4668 14.4538Z" fill="white"/>
<path fill-rule="evenodd" clip-rule="evenodd" d="M23.7792 21.3543L21.2285 24L27.8091 22.2368L24.2782 21.2214L24.4046 21.6923C24.4413 21.83 24.3596 21.9717 24.2216 22.0084C24.0839 22.0451 23.9422 21.9634 23.9055 21.8255L23.7792 21.3543Z" fill="white"/>
<path fill-rule="evenodd" clip-rule="evenodd" d="M11.5671 11.2825C11.216 12.5924 10.3613 13.6397 9.26682 14.2716C8.24202 14.8634 7.00693 15.0913 5.77892 14.8299L5.84407 14.5866C5.88077 14.4489 5.79912 14.3075 5.66141 14.2705H5.66113C5.52342 14.2338 5.38174 14.3155 5.34503 14.4535L5.27988 14.6961C4.08551 14.3084 3.13005 13.4938 2.53855 12.4693C1.90635 11.3745 1.68957 10.04 2.04065 8.73014L4.37992 0C4.35119 0.13372 4.43227 0.268299 4.566 0.303865L4.56628 0.30358L4.81552 0.370442L13.3439 2.65568L13.5803 2.71912L13.5934 2.72311C13.7269 2.75895 13.864 2.68327 13.9064 2.55354L11.5674 11.2829L11.5671 11.2825Z" fill="white"/>
<path d="M5.3448 14.4538C5.38151 14.3161 5.52319 14.2341 5.6609 14.2708C5.7986 14.3076 5.88054 14.4492 5.84384 14.5869L3.90428 21.825C3.86758 21.9627 3.72589 22.0447 3.58819 22.008C3.45049 21.9713 3.36855 21.8296 3.40525 21.6919L5.3448 14.4538Z" fill="white"/>
<path fill-rule="evenodd" clip-rule="evenodd" d="M4.02988 21.3543L6.5806 24L0 22.2368L3.53088 21.2214L3.40455 21.6923C3.36785 21.83 3.4495 21.9717 3.58749 22.0084C3.7252 22.0451 3.86688 21.9634 3.90359 21.8255L4.02988 21.3543Z" fill="white"/>
</svg>
