<svg width="22" height="22" viewBox="0 0 22 22" fill="none" xmlns="http://www.w3.org/2000/svg">
<path d="M18.1409 13.686C16.2526 15.5651 13.5484 16.1426 11.1743 15.4001L6.85676 19.7085C6.54509 20.0293 5.93093 20.2218 5.49093 20.1576L3.49259 19.8826C2.83259 19.791 2.21843 19.1676 2.11759 18.5076L1.84259 16.5093C1.77843 16.0693 1.98926 15.4551 2.29176 15.1435L6.60009 10.8351C5.86676 8.45179 6.43509 5.74762 8.32343 3.86846C11.0276 1.16429 15.4184 1.16429 18.1318 3.86846C20.8451 6.57262 20.8451 10.9818 18.1409 13.686Z" stroke="#323444" stroke-width="1.2" stroke-miterlimit="10" stroke-linecap="round" stroke-linejoin="round"/>
<path d="M6.31543 16.0327L8.42376 18.141" stroke="#323444" stroke-width="1.2" stroke-miterlimit="10" stroke-linecap="round" stroke-linejoin="round"/>
<path d="M13.292 10.0835C14.0514 10.0835 14.667 9.46789 14.667 8.7085C14.667 7.9491 14.0514 7.3335 13.292 7.3335C12.5326 7.3335 11.917 7.9491 11.917 8.7085C11.917 9.46789 12.5326 10.0835 13.292 10.0835Z" stroke="#323444" stroke-width="1.2" stroke-linecap="round" stroke-linejoin="round"/>
</svg>
