<svg width="26" height="26" viewBox="0 0 26 26" fill="none" xmlns="http://www.w3.org/2000/svg">
<path d="M20.0099 18.2318L20.4324 21.6552C20.5407 22.5543 19.5766 23.1827 18.8074 22.7168L15.0591 20.4852C14.7991 20.3335 14.7341 20.0085 14.8749 19.7485C15.4166 18.7518 15.7091 17.6252 15.7091 16.4985C15.7091 12.5335 12.3074 9.30518 8.12574 9.30518C7.26991 9.30518 6.43574 9.43518 5.65574 9.69518C5.25491 9.82518 4.86491 9.45685 4.96241 9.04518C5.94824 5.10185 9.73991 2.16602 14.2682 2.16602C19.5549 2.16602 23.8341 6.16352 23.8341 11.0927C23.8341 14.0177 22.3282 16.6068 20.0099 18.2318Z" fill="white"/>
<path d="M14.0827 16.5C14.0827 17.7891 13.606 18.9808 12.8043 19.9233C11.7318 21.2233 10.031 22.0575 8.12435 22.0575L5.29685 23.7366C4.82018 24.0291 4.21352 23.6283 4.27852 23.0758L4.54935 20.9416C3.09768 19.9341 2.16602 18.32 2.16602 16.5C2.16602 14.5933 3.18435 12.9141 4.74435 11.9175C5.70852 11.2891 6.86768 10.9316 8.12435 10.9316C11.4177 10.9316 14.0827 13.4233 14.0827 16.5Z" fill="white"/>
</svg>
