<svg width="24" height="25" viewBox="0 0 24 25" fill="none" xmlns="http://www.w3.org/2000/svg">
<path d="M21.3995 13.489L18.6195 14.9369C18.4295 15.041 18.1995 14.9994 18.0395 14.8431L16.1695 12.8952C15.9695 12.6869 15.9695 12.364 16.1695 12.1556L18.0695 10.1765C18.2195 10.0202 18.4595 9.97854 18.6495 10.0827L21.3995 11.5202C22.1895 11.916 22.1895 13.0827 21.3995 13.489Z" fill="white"/>
<path d="M16.3009 8.84442C16.6109 9.00067 16.6709 9.42778 16.4309 9.67778L14.7609 11.4173L14.0509 12.1569C13.8509 12.3653 13.5409 12.3653 13.3409 12.1569L6.20095 4.71943C5.80095 4.30277 6.27095 3.6257 6.78095 3.88611L16.3009 8.84442Z" fill="white"/>
<path d="M2 20.9896V3.62505C2 3.16671 2.53 2.92711 2.85 3.25003L11.62 12.1146C11.83 12.323 11.82 12.6667 11.61 12.875L2.84 21.375C2.52 21.6875 2 21.4479 2 20.9896Z" fill="white"/>
<path d="M16.2706 16.166L6.88056 21.0619C6.37056 21.3223 5.90056 20.6452 6.30056 20.2285L13.3506 12.8848C13.5506 12.6764 13.8606 12.6764 14.0606 12.8848L16.4106 15.3327C16.6406 15.5827 16.5706 16.0098 16.2706 16.166Z" fill="white"/>
</svg>
