<svg width="24" height="24" viewBox="0 0 24 24" fill="none" xmlns="http://www.w3.org/2000/svg">
<path d="M11.7145 0C7.93798 0 4.97626 1.24938 2.99106 3.78565C1.00627 6.32192 0 10.105 0 15.1428C0.00179367 15.368 0.334423 15.5011 0.49107 15.3393L1.41959 14.4107C1.55212 19.2184 5.79835 24 11.1425 24C13.6271 24 15.7736 23.263 17.4017 21.8572C18.7631 20.6815 19.7101 19.2021 20.2409 17.2143L20.2945 17.4822C20.3419 17.6948 20.6741 17.7648 20.8035 17.5894C22.2274 15.5956 23.4284 14.0694 23.4284 10.8573C23.4284 8.56656 22.3271 7.05825 21.0713 6.65188C20.209 4.66647 19.135 3.00413 17.6428 1.83944C16.1272 0.656386 14.1932 0.0001123 11.7143 0.0001123L11.7145 0ZM10.1787 10.7857L9.72329 13.0804C9.68543 13.2626 9.87057 13.4527 10.0537 13.4198C13.0079 12.8827 14.7614 12.3055 16.866 11.0538C16.8693 12.3873 16.8974 13.2765 17.1428 14.286C17.181 14.4385 17.2568 14.5377 17.366 14.5895C17.5619 14.6411 17.7459 14.5449 17.9017 14.4823C18.4763 14.2148 19.0042 13.9019 19.5178 13.5894L19.9642 15.8395C19.5256 18.2702 18.5052 20.143 17.0268 21.4201C15.512 22.7285 13.5154 23.4291 11.1432 23.4291C5.93501 23.4291 1.79472 18.4783 2.00033 13.8311L3.51818 12.3133L3.71469 13.474C3.74538 13.6492 3.9668 13.7598 4.12545 13.6793L10.1787 10.7857ZM6.9734 15.9642C6.56005 16.0055 6.17799 16.1611 5.87529 16.3124C5.72242 16.365 5.64051 16.5635 5.71186 16.7086C5.78301 16.8537 5.99048 16.9101 6.12541 16.8214C6.39406 16.6871 6.72627 16.5567 7.02724 16.5268C7.32818 16.4968 7.57673 16.5494 7.79515 16.768C7.90038 16.8754 8.0939 16.8776 8.20131 16.7726C8.30894 16.6674 8.31093 16.4738 8.2057 16.3664C7.80451 16.0364 7.41968 15.9549 6.97366 15.9644L6.9734 15.9642ZM14.0805 16.366C13.9753 16.4734 13.9775 16.6672 14.0849 16.7722C14.1925 16.8774 14.386 16.8752 14.4911 16.7676C14.7095 16.5492 14.958 16.4964 15.259 16.5264C15.5599 16.5565 15.8921 16.6867 16.1608 16.821C16.2957 16.9099 16.503 16.8533 16.5743 16.7082C16.6455 16.5631 16.5636 16.3646 16.4109 16.312C16.1082 16.1605 15.7261 16.0051 15.3128 15.9638C14.8594 15.9341 14.3414 16.1139 14.0808 16.3658L14.0805 16.366ZM9.5214 19.2052C9.41457 19.3148 9.39225 19.5171 9.50904 19.6251C9.87894 19.995 10.4457 20.1429 11.0002 20.1429C11.5547 20.1429 12.1215 19.995 12.4914 19.6251C12.5966 19.5177 12.5944 19.324 12.487 19.2189C12.3794 19.1137 12.1859 19.1159 12.0808 19.2235C11.8793 19.425 11.4461 19.5717 11.0004 19.5717C10.5548 19.5717 10.1215 19.425 9.92002 19.2235C9.72351 19.0872 9.62605 19.1245 9.52162 19.2056L9.5214 19.2052Z" fill="white"/>
</svg>
