<svg width="15" height="32" viewBox="0 0 15 32" fill="none" xmlns="http://www.w3.org/2000/svg">
<path fill-rule="evenodd" clip-rule="evenodd" d="M5 23.7835C5.35714 23.4262 5 23.4262 5.35714 23.069C5.71429 23.069 5.71429 23.069 5.71429 23.7835C5.71429 23.069 6.07143 22.7117 6.42857 22.7117C6.78571 22.7117 6.78571 21.9973 6.07143 21.2828C6.42857 21.64 6.78571 21.9973 7.14286 23.069H6.42857C6.07143 23.069 5.71429 23.4262 5.71429 24.1407H6.07143V24.4979H6.42857C6.78571 24.4979 6.78571 24.4979 6.78571 24.8552C7.14286 24.8552 7.14286 25.2124 6.78571 25.5697C6.78571 25.5697 6.07143 25.5697 6.07143 25.9269C6.78571 28.0703 3.92857 27.3559 2.85714 26.2841C2.5 25.5697 2.14286 24.8552 2.5 24.1407C1.78571 23.7835 1.78571 23.4262 1.42857 23.069C1.07143 21.9973 1.78571 20.9255 2.85714 20.9255C3.57143 20.9255 4.28571 21.2828 4.64286 21.64V23.069V23.4262L5 23.7835ZM3.92857 32H13.2143C13.2143 30.9283 13.2143 29.1421 12.8571 27.7131C12.8571 27.3559 12.5 26.6414 12.1429 26.2841L11.7857 25.2124C10.7143 24.1407 11.0714 23.4262 11.7857 21.2828C12.1429 20.2111 12.5 20.9255 12.8571 20.2111C12.8571 19.4966 12.8571 19.1393 13.2143 18.0676C13.5714 17.7104 13.5714 17.3531 13.9286 16.6386C14.2857 16.2814 14.6429 15.5669 14.6429 15.2097C14.6429 13.7807 15 11.9945 14.2857 10.9228C13.5714 9.85106 13.9286 10.9228 14.2857 9.49382C14.2857 8.77934 14.2857 7.70762 13.9286 7.35038C13.9286 6.6359 13.9286 5.92142 14.2857 5.20693V4.84969C14.2857 5.20693 14.6429 5.20693 15 5.20693C15 4.84969 14.6429 4.13521 13.9286 3.42073V3.06349L14.2857 3.42073C13.9286 1.63452 12.8571 0.205561 11.0714 0.562802C9.28571 0.920043 9.28571 -0.866161 6.07143 0.562802C5.71429 0.562802 5.35714 0.920043 5 1.27728C3.92857 2.34901 3.92857 4.13521 4.64286 5.56417C5.35714 5.92142 5 7.35038 5 8.06486H6.07143C6.07143 8.4221 6.07143 8.06486 6.42857 8.4221C6.42857 8.77934 6.42857 8.4221 6.78571 8.77934L7.14286 9.13658C7.5 9.49382 7.5 9.49382 7.85714 9.49382C8.21429 9.49382 8.57143 9.13658 8.92857 9.13658C9.28571 9.13658 9.64286 9.49382 9.28571 9.85106L8.21429 11.9945C8.21429 12.3518 8.21429 12.3518 7.5 12.709L6.78571 13.4235C6.42857 13.7807 6.07143 13.7807 5.71429 14.138C5 14.4952 5 15.5669 5 16.2814C3.57143 16.2814 4.28571 15.5669 3.21429 16.6386C2.85714 16.9959 2.85714 17.3531 2.85714 17.7104C2.5 18.0676 2.85714 18.0676 2.85714 18.7821L1.78571 19.8538C1.42857 19.8538 1.42857 19.8538 1.42857 20.2111L0.357143 21.2828C0 21.9973 0 22.7117 0 23.4262C0 24.8552 0.357143 25.9269 1.42857 26.9986C1.78571 27.7131 2.5 28.4276 3.57143 28.7848V29.1421C3.57143 29.8566 3.92857 29.8566 3.92857 30.571V32ZM2.14286 20.5683C3.57143 19.4966 6.07143 20.5683 7.14286 22.3545C8.21429 24.4979 7.85714 26.6414 6.07143 27.3559C4.64286 28.4276 2.5 27.7131 1.42857 25.5697C0.357143 23.7835 0.714286 21.2828 2.14286 20.5683Z" fill="white"/>
</svg>
