<svg width="23" height="28" viewBox="0 0 23 28" fill="none" xmlns="http://www.w3.org/2000/svg">
<path d="M4.53098 16.6527C4.53098 15.9368 3.94253 15.3483 3.22657 15.3483H2.82446V5.21757L4.43293 0.76499C4.49178 0.58845 4.47216 0.392309 4.36428 0.24519C4.2564 0.0980703 4.07986 0 3.90333 0H0.627647C0.441307 0 0.264767 0.0882678 0.166696 0.24519C0.0588158 0.3923 0.0391972 0.58845 0.0980449 0.76499L1.70652 5.21757V15.3394H1.30441C0.58846 15.3394 0 15.9278 0 16.6438V25.8922C0 26.6081 0.588451 27.1966 1.30441 27.1966H3.2365C3.95245 27.1966 4.54091 26.6081 4.54091 25.8922V16.6536L4.53098 16.6527Z" fill="white"/>
<path d="M16.1823 7.96365C16.2804 7.96365 16.3784 7.99307 16.4569 8.0323V0.578605C16.4569 0.264765 16.2019 0.00976562 15.8881 0.00976562H12.4751C12.1612 0.00976562 11.9062 0.264765 11.9062 0.578605V7.99312C11.9651 7.97351 12.0239 7.9637 12.0828 7.9637L16.1823 7.96365Z" fill="white"/>
<path d="M20.8422 20.459H22.5487C22.5781 20.459 22.6075 20.459 22.637 20.4688C22.686 20.0765 22.7056 19.694 22.7056 19.3017C22.6566 19.3213 22.5977 19.3213 22.5487 19.3213H19.1357C18.8219 19.3213 18.5669 19.0663 18.5669 18.7525C18.5669 18.4386 18.8219 18.1836 19.1357 18.1836H22.5487C22.5781 18.1836 22.6075 18.1836 22.637 18.1934C22.4604 16.7714 21.9602 15.3689 21.1168 14.0939L20.901 13.7702C19.9497 12.3285 18.253 11.4164 16.4485 11.3674V9.0332C16.37 9.08224 16.2719 9.10186 16.1738 9.10186H12.0743C12.0154 9.10186 11.9566 9.09205 11.8977 9.07243V11.3772C10.0834 11.4262 8.38669 12.3383 7.44517 13.7898L7.23921 14.1036C5.12079 17.3303 5.12079 21.3317 7.23921 24.5581L8.85745 27.0295C8.96533 27.1865 9.14187 27.2845 9.32821 27.2845H19.0178C19.214 27.2845 19.3905 27.1865 19.4886 27.0295L21.1068 24.5581C21.7149 23.6264 22.1562 22.626 22.4112 21.606H20.8322C20.5184 21.606 20.2634 21.351 20.2634 21.0372C20.283 20.7135 20.538 20.4586 20.842 20.4586L20.8422 20.459Z" fill="white"/>
</svg>
