<svg width="19" height="24" viewBox="0 0 19 24" fill="none" xmlns="http://www.w3.org/2000/svg">
<path d="M9.48415 3.53681C10.2749 3.53681 10.9156 2.89556 10.9156 2.1054C10.9156 0.865464 9.48415 0 9.48415 0C9.48415 0 8.05273 0.865464 8.05273 2.1054C8.05273 2.8962 8.69334 3.53681 9.48415 3.53681Z" fill="white"/>
<path d="M16.9009 13.8949H16.8553V9.52934C16.8553 8.59303 16.0938 7.83179 15.1578 7.83179H10.9995V4.80024C10.9995 4.52077 10.773 4.29498 10.4942 4.29498H8.47322C8.19442 4.29498 7.96796 4.52077 7.96796 4.80024V7.83179H3.80971C2.87339 7.83179 2.11216 8.59372 2.11216 9.52934V13.8949H2.06659C0.927308 13.8949 0 14.822 0 15.9615V22.4842C0 23.32 0.680049 24 1.51577 24H17.4519C18.2876 24 18.9677 23.32 18.9677 22.4842V15.9615C18.9677 14.8222 18.0411 13.8949 16.9011 13.8949H16.9009ZM8.97842 5.3055H9.98894V7.83179H8.97842V5.3055ZM3.12262 10.8205C3.18871 10.8593 3.25503 10.9019 3.32675 10.9504C3.64299 11.1636 4.03706 11.4295 4.77485 11.4295C5.51241 11.4295 5.90357 11.1633 6.21937 10.9495C6.48373 10.7706 6.67456 10.6419 7.10355 10.6419C7.52896 10.6419 7.71886 10.7706 7.98212 10.9479C8.29881 11.1627 8.69352 11.4295 9.4327 11.4295C10.1719 11.4295 10.5614 11.1633 10.8776 10.9495C11.1413 10.7706 11.3324 10.6419 11.7618 10.6419C12.1872 10.6419 12.3778 10.7706 12.6404 10.9479C12.9571 11.1627 13.3518 11.4295 14.091 11.4295C14.8301 11.4295 15.2228 11.1642 15.54 10.9504C15.6467 10.8787 15.7421 10.8185 15.844 10.7686V13.8952H3.12191V10.8208L3.12262 10.8205ZM17.4517 22.9894H1.51561C1.23727 22.9894 1.01035 22.763 1.01035 22.4842V17.5775C1.22915 17.6569 1.40756 17.7731 1.60448 17.9116C1.99696 18.1886 2.48622 18.5325 3.39523 18.5325C4.30423 18.5325 4.79823 18.187 5.19181 17.91C5.5394 17.6655 5.81371 17.472 6.40645 17.472C6.99919 17.472 7.27353 17.6655 7.62109 17.91C8.0147 18.1874 8.50486 18.5325 9.41768 18.5325C10.3307 18.5325 10.8168 18.1874 11.2093 17.9106C11.5564 17.6657 11.8307 17.4721 12.4239 17.4721C13.0171 17.4721 13.291 17.6657 13.6386 17.9102C14.0326 18.1876 14.5227 18.5327 15.4359 18.5327C16.349 18.5327 16.8409 18.1881 17.2381 17.9117C17.4716 17.7484 17.6746 17.6102 17.9572 17.5337V22.4837C17.9572 22.7625 17.7303 22.9889 17.4519 22.9889L17.4517 22.9894Z" fill="white"/>
</svg>
