<svg width="76" height="65" viewBox="0 0 76 65" fill="none" xmlns="http://www.w3.org/2000/svg">
<path d="M46.7944 46.3619C46.0238 45.902 45.0292 46.1513 44.5695 46.9213C43.161 49.2759 40.5842 50.7388 37.8513 50.7388C35.1127 50.7388 32.539 49.276 31.133 46.9267C30.6732 46.1507 29.6733 45.902 28.9081 46.3673C28.1375 46.8271 27.8889 47.8192 28.3457 48.5899C30.3353 51.9148 33.9771 53.9806 37.8484 53.9806C41.7171 53.9806 45.3583 51.915 47.351 48.5899C47.8139 47.8192 47.5623 46.8218 46.7947 46.3619H46.7944Z" fill="#35C1FF"/>
<path d="M73.2037 27.8254C71.8761 27.0143 70.1568 26.8659 68.6373 27.3577C66.4697 11.2388 54.2117 0 37.8531 0C21.4839 0 9.22093 11.2545 7.06587 27.3886C5.59525 26.9155 3.92735 27.0048 2.61841 27.7537C1.43442 28.435 -0.466499 30.203 0.104477 34.4123C0.683192 38.6781 3.46205 40.5439 5.69543 42.0364C6.78768 42.7666 7.73092 43.399 8.21492 44.1587L8.95053 45.3156C13.4408 57.2194 24.2331 65 37.8531 65C51.4731 65 62.2678 57.2166 66.7525 45.3109L67.4881 44.1541C67.9721 43.3998 68.9129 42.7643 70.0052 42.0372C72.2379 40.5424 75.0174 38.6796 75.5961 34.4131C76.1555 30.2987 74.3361 28.5167 73.2028 27.8251L73.2037 27.8254ZM3.32409 33.9782C3.18892 32.9777 3.12677 31.207 4.23773 30.5662C5.02464 30.1148 6.14345 30.3255 6.72756 30.7823L6.76799 30.8118C6.74446 31.3749 6.69558 31.9288 6.69558 32.5021C6.69558 34.8108 6.89834 37.0413 7.2767 39.18C5.41145 37.9308 3.68914 36.6848 3.32409 33.9782ZM37.853 61.7592C21.6784 61.7592 9.93913 49.4559 9.93913 32.5013C9.93913 25.1047 12.1773 18.5917 16.0407 13.6017L16.9006 19.6278H19.3337L19.761 9.6901C19.7688 9.68467 19.7742 9.67622 19.7827 9.66838L21.6317 19.6278H28.7959L29.6583 6.19973L31.7698 19.6278H37.1767L38.5285 7.80019L39.2043 19.6278H43.2596L44.8895 6.19973L46.2334 19.6278H53.1273L54.8683 9.4765L56.1012 19.6278H58.8047L59.6646 13.6017C63.528 18.5923 65.7662 25.1048 65.7662 32.5014C65.7662 49.4545 54.0278 61.7592 37.8523 61.7592L37.853 61.7592ZM72.3818 33.9782C72.0143 36.6841 70.2944 37.9308 68.4292 39.1825C68.8106 37.0438 69.0103 34.8135 69.0103 32.5046C69.0103 31.9289 68.959 31.3773 68.9373 30.8125L69.0538 30.7316C69.6699 30.2989 70.7567 30.1342 71.5056 30.594C72.5816 31.2476 72.517 32.994 72.3818 33.9782Z" fill="#35C1FF"/>
<path d="M27.7659 30.7421C27.7659 32.8397 25.9538 34.5403 23.7192 34.5403C21.484 34.5403 19.6719 32.8397 19.6719 30.7421C19.6719 28.6439 21.484 26.9434 23.7192 26.9434C25.9538 26.9434 27.7659 28.6439 27.7659 30.7421Z" fill="#35C1FF"/>
<path d="M56.0374 30.7421C56.0374 32.8397 54.2253 34.5403 51.9901 34.5403C49.7555 34.5403 47.9434 32.8397 47.9434 30.7421C47.9434 28.6439 49.7555 26.9434 51.9901 26.9434C54.2253 26.9434 56.0374 28.6439 56.0374 30.7421Z" fill="#35C1FF"/>
</svg>
