<svg width="26" height="26" viewBox="0 0 26 26" fill="none" xmlns="http://www.w3.org/2000/svg">
<path d="M12.9993 2.16602C7.01935 2.16602 2.16602 7.01935 2.16602 12.9993C2.16602 18.9793 7.01935 23.8327 12.9993 23.8327C18.9793 23.8327 23.8327 18.9793 23.8327 12.9993C23.8327 7.01935 18.9793 2.16602 12.9993 2.16602ZM9.24018 14.5918C9.55435 14.906 9.55435 15.426 9.24018 15.7402C9.07768 15.9027 8.87185 15.9785 8.66602 15.9785C8.46018 15.9785 8.25435 15.9027 8.09185 15.7402L5.92518 13.5735C5.61102 13.2593 5.61102 12.7393 5.92518 12.4252L8.09185 10.2585C8.40602 9.94435 8.92602 9.94435 9.24018 10.2585C9.55435 10.5727 9.55435 11.0927 9.24018 11.4068L7.64768 12.9993L9.24018 14.5918ZM14.8302 10.7893L12.6635 15.8485C12.5335 16.1518 12.2302 16.336 11.916 16.336C11.8077 16.336 11.6993 16.3143 11.6018 16.271C11.1902 16.0977 10.9952 15.621 11.1793 15.1985L13.346 10.1393C13.5193 9.72768 13.996 9.53268 14.4077 9.71685C14.8193 9.90102 15.0035 10.3777 14.8302 10.7893ZM20.0735 13.5735L17.9069 15.7402C17.7444 15.9027 17.5385 15.9785 17.3327 15.9785C17.1268 15.9785 16.921 15.9027 16.7585 15.7402C16.4443 15.426 16.4443 14.906 16.7585 14.5918L18.351 12.9993L16.7585 11.4068C16.4443 11.0927 16.4443 10.5727 16.7585 10.2585C17.0727 9.94435 17.5927 9.94435 17.9069 10.2585L20.0735 12.4252C20.3877 12.7393 20.3877 13.2593 20.0735 13.5735Z" fill="white"/>
</svg>
