<svg width="22" height="22" viewBox="0 0 22 22" fill="none" xmlns="http://www.w3.org/2000/svg">
<path d="M11.0007 1.83301C5.94065 1.83301 1.83398 5.93967 1.83398 10.9997C1.83398 16.0597 5.94065 20.1663 11.0007 20.1663C16.0607 20.1663 20.1673 16.0597 20.1673 10.9997C20.1673 5.93967 16.0607 1.83301 11.0007 1.83301ZM7.81982 12.3472C8.08565 12.613 8.08565 13.053 7.81982 13.3188C7.68232 13.4563 7.50815 13.5205 7.33398 13.5205C7.15982 13.5205 6.98565 13.4563 6.84815 13.3188L5.01482 11.4855C4.74898 11.2197 4.74898 10.7797 5.01482 10.5138L6.84815 8.68051C7.11398 8.41467 7.55398 8.41467 7.81982 8.68051C8.08565 8.94634 8.08565 9.38634 7.81982 9.65217L6.47232 10.9997L7.81982 12.3472ZM12.5498 9.12967L10.7165 13.4105C10.6065 13.6672 10.3498 13.823 10.084 13.823C9.99232 13.823 9.90065 13.8047 9.81815 13.768C9.46982 13.6213 9.30482 13.218 9.46065 12.8605L11.294 8.57967C11.4407 8.23134 11.844 8.06634 12.1923 8.22217C12.5407 8.37801 12.6965 8.78134 12.5498 9.12967ZM16.9865 11.4855L15.1532 13.3188C15.0157 13.4563 14.8415 13.5205 14.6673 13.5205C14.4932 13.5205 14.319 13.4563 14.1815 13.3188C13.9157 13.053 13.9157 12.613 14.1815 12.3472L15.529 10.9997L14.1815 9.65217C13.9157 9.38634 13.9157 8.94634 14.1815 8.68051C14.4473 8.41467 14.8873 8.41467 15.1532 8.68051L16.9865 10.5138C17.2523 10.7797 17.2523 11.2197 16.9865 11.4855Z" fill="white"/>
</svg>
