<svg width="31" height="30" viewBox="0 0 31 30" fill="none" xmlns="http://www.w3.org/2000/svg">
<g clip-path="url(#clip0_1341_6868)">
<path d="M30.2308 10.7216C29.159 7.19661 26.7965 4.21451 23.6791 2.29691C23.1679 1.98293 22.6381 1.6988 22.0925 1.44599C21.843 1.33018 21.59 1.22082 21.3333 1.11789C21.2371 1.0794 21.1405 1.04187 21.0432 1.00531C20.9459 0.968744 20.8483 0.932906 20.7504 0.897794C20.6844 0.8746 20.6185 0.851808 20.5525 0.82942C19.7661 0.562466 18.9586 0.358762 18.1382 0.220341L18.0665 0.208503C17.9374 0.187403 17.8078 0.167753 17.6777 0.149552C17.607 0.139888 17.536 0.130465 17.4648 0.121767C17.3224 0.103888 17.1794 0.0877816 17.036 0.0734466C16.898 0.060239 16.7595 0.0487228 16.6205 0.0388976C16.5426 0.0335824 16.4647 0.0285091 16.3863 0.0241602C16.096 0.00805341 15.8036 0 15.5092 0C15.141 0 14.7761 0.0125633 14.4144 0.0376899C14.1251 0.0575013 13.838 0.0852051 13.5533 0.120801C13.3411 0.147055 13.1293 0.17806 12.9177 0.213817C11.8998 0.382654 10.9021 0.65222 9.94005 1.01835C9.85547 1.05057 9.77123 1.08334 9.68731 1.11669C9.43062 1.21961 9.17755 1.32897 8.92811 1.44478C6.98042 2.34807 5.24909 3.64169 3.84668 5.24153C2.44427 6.84138 1.40215 8.71165 0.788086 10.7308C1.22516 11.2658 1.69237 11.7767 2.18754 12.2611C1.77161 14.222 1.81018 16.249 2.3004 18.1935C2.79063 20.1379 3.72009 21.9506 5.02063 23.4985C6.32117 25.0463 7.95981 26.2902 9.81642 27.1389C11.673 27.9876 13.7005 28.4196 15.7502 28.4032C17.7999 28.3867 19.8199 27.9224 21.662 27.0441C23.5041 26.1657 25.1217 24.8958 26.3961 23.3273C27.6705 21.7588 28.5694 19.9315 29.027 17.9795C29.4845 16.0274 29.489 14 29.0403 12.046C29.4582 11.6236 29.855 11.1821 30.2308 10.7216ZM27.468 19.8822C26.3162 22.5504 24.2549 24.7472 21.6339 26.0996C19.0129 27.452 15.9937 27.8768 13.0887 27.3018C10.1836 26.7269 7.57162 25.1876 5.69601 22.9453C3.82039 20.703 2.79669 17.8957 2.79861 14.9999C2.79816 14.323 2.85331 13.6471 2.96356 12.9789C3.45082 10.0575 4.97967 7.39852 7.2798 5.47204C9.57993 3.54557 12.5032 2.47568 15.5328 2.45153C18.5624 2.42739 21.5031 3.45054 23.8351 5.3401C26.1671 7.22966 27.7401 9.86391 28.2761 12.7771C28.41 13.5108 28.4771 14.2546 28.4767 14.9999C28.48 16.677 28.1369 18.3376 27.468 19.8822Z" fill="#ECFF16"/>
<path d="M17.6777 0.14856C17.808 0.16676 17.9376 0.186411 18.0665 0.207511C17.9374 0.186572 17.8078 0.166921 17.6777 0.14856Z" fill="#FFE221"/>
<path d="M16.6211 0.0386963C16.7601 0.0483604 16.8986 0.0598766 17.0366 0.0732452C16.8986 0.0600376 16.7601 0.0485214 16.6211 0.0386963Z" fill="#FFE221"/>
<path d="M17.0371 0.0732422C17.1805 0.0870941 17.3235 0.103201 17.4659 0.121563C17.3235 0.102557 17.1805 0.0864498 17.0371 0.0732422Z" fill="#FFE221"/>
<path d="M30.2298 10.7221C29.8547 11.1821 29.4579 11.6236 29.0393 12.0466C29.4883 14.0007 29.4839 16.0282 29.0264 17.9804C28.569 19.9326 27.6701 21.76 26.3957 23.3287C25.1213 24.8973 23.5037 26.1674 21.6614 27.0458C19.8192 27.9242 17.7991 28.3887 15.7493 28.4051C13.6994 28.4215 11.6718 27.9895 9.8151 27.1407C7.95839 26.2919 6.31968 25.0479 5.01912 23.4998C3.71856 21.9518 2.78914 20.139 2.29901 18.1944C1.80887 16.2498 1.77046 14.2226 2.18658 12.2616C1.69141 11.7772 1.2242 11.2664 0.787124 10.7313C1.03595 9.91089 1.35672 9.11298 1.74589 8.34644C0.696651 10.4146 0.152528 12.6922 0.156269 15.0004C0.156269 23.2845 7.03112 30.0005 15.5099 30.0005C23.9888 30.0005 30.8634 23.284 30.8634 15.0004C30.8647 13.5519 30.6513 12.1108 30.2298 10.7221Z" fill="#FFE921"/>
<path d="M20.751 0.896729C20.8499 0.931519 20.9475 0.967357 21.0438 1.00424C20.9467 0.967518 20.8491 0.93168 20.751 0.896729Z" fill="#FFE221"/>
<path d="M12.916 0.21363C13.1267 0.178517 13.3388 0.147753 13.5523 0.121338C13.3396 0.147109 13.1275 0.177873 12.916 0.21363Z" fill="#FFE221"/>
<path d="M13.5547 0.120831C13.8392 0.0852349 14.1263 0.0575311 14.4158 0.0377197C14.1258 0.0575311 13.8387 0.0852349 13.5547 0.120831Z" fill="#FFE221"/>
<path opacity="0.13" d="M7.34046 2.29755C7.85145 1.9836 8.38102 1.69946 8.92637 1.44663C9.17598 1.33082 9.42904 1.22145 9.68557 1.11853C9.42888 1.22145 9.17581 1.33082 8.92637 1.44663C5.80859 2.89567 3.27953 5.32608 1.74512 8.34776C3.00566 5.86696 4.94165 3.77358 7.34046 2.29755Z" fill="white"/>
<path opacity="0.13" d="M21.042 1.00452C21.1391 1.04124 21.2358 1.07877 21.3321 1.1171C21.236 1.07893 21.1393 1.0414 21.042 1.00452Z" fill="white"/>
<path opacity="0.13" d="M9.68555 1.1175C9.7693 1.084 9.85354 1.05122 9.93829 1.01917C9.85371 1.05138 9.76946 1.08416 9.68555 1.1175Z" fill="white"/>
<path d="M28.4757 15.0004C28.4757 18.3271 27.123 21.5175 24.7152 23.8699C22.3075 26.2222 19.0419 27.5437 15.6368 27.5437C12.2317 27.5437 8.96605 26.2222 6.55828 23.8699C4.15052 21.5175 2.79785 18.3271 2.79785 15.0004C2.79785 14.8598 2.80024 14.7196 2.80502 14.5798C2.91131 11.3243 4.30969 8.23685 6.70435 5.97062C9.09901 3.70438 12.3021 2.43711 15.636 2.43689C18.97 2.43667 22.1733 3.70352 24.5682 5.96944C26.9632 8.23536 28.362 11.3226 28.4688 14.5781C28.469 14.5788 28.469 14.5796 28.4688 14.5803C28.4735 14.7199 28.4758 14.86 28.4757 15.0004Z" fill="#FFE816"/>
<path d="M28.4757 15C28.4757 15.1387 28.4734 15.2769 28.4688 15.4146C28.4486 14.8103 28.384 14.2082 28.2754 13.6129C27.783 10.9534 26.425 8.52028 24.4033 6.67549C22.3816 4.8307 19.8043 3.67286 17.0549 3.37423C14.3054 3.07561 11.5308 3.65216 9.14373 5.0181C6.75669 6.38405 4.8848 8.46639 3.80658 10.9553C3.40889 11.8724 3.12567 12.8329 2.96305 13.8161C2.87538 14.3457 2.8226 14.8803 2.80503 15.4165C2.80041 15.278 2.79802 15.1392 2.79785 15.0002C2.79736 14.3233 2.8526 13.6475 2.96305 12.9792C3.41362 10.2949 4.74477 7.82631 6.756 5.94523C8.76722 4.06415 11.3496 2.87245 14.1142 2.54964C16.8788 2.22682 19.676 2.79036 22.0843 4.15537C24.4926 5.52039 26.3818 7.61297 27.4672 10.1179C27.8372 10.9716 28.1083 11.863 28.2754 12.7756C28.4093 13.5098 28.4763 14.2542 28.4757 15Z" fill="#FCA800"/>
<path d="M20.9992 17.1985L20.7818 17.4104L21.7688 23.1589C21.8618 23.7 21.293 24.1127 20.8068 23.8571L15.6383 21.1432L10.4698 23.8571C9.9831 24.1127 9.41457 23.7 9.50755 23.1589L10.4945 17.4104L10.3902 17.3087L6.31223 13.3394C5.91878 12.956 6.1359 12.2884 6.67996 12.2094L12.4588 11.3711L15.043 6.14087C15.096 6.03046 15.1801 5.93707 15.2854 5.87165C15.3907 5.80623 15.513 5.77148 15.6378 5.77148C15.7626 5.77148 15.8848 5.80623 15.9902 5.87165C16.0955 5.93707 16.1796 6.03046 16.2325 6.14087L18.817 11.3711L24.5959 12.2094C25.1399 12.2884 25.357 12.956 24.9634 13.3394L20.9992 17.1985Z" fill="#C26E00"/>
<path d="M20.9794 16.8671L20.7625 17.0736L21.746 22.6761C21.8385 23.2036 21.272 23.6058 20.7875 23.3567L15.6378 20.7114L10.4873 23.3567C10.0024 23.6058 9.43584 23.2036 9.52883 22.6761L10.5123 17.0736L10.4082 16.9746L6.34562 13.1058C5.95366 12.7323 6.17004 12.0816 6.71212 12.0046L12.4699 11.1875L15.0448 6.08966C15.2871 5.6096 15.9877 5.6096 16.2298 6.08966L18.8049 11.1875L24.5627 12.0038C25.1048 12.0809 25.3212 12.7316 24.929 13.1051L20.9794 16.8671Z" fill="#FE8500"/>
<path opacity="0.17" d="M24.929 13.1058L20.9794 16.8671C17.5375 17.8823 13.871 17.9196 10.4082 16.9746L6.34562 13.1058C5.95366 12.7323 6.17004 12.0816 6.71212 12.0046L12.4699 11.1875L15.0448 6.08966C15.2871 5.6096 15.9877 5.6096 16.2298 6.08966L18.8049 11.1875L24.5627 12.0038C25.1048 12.0816 25.3212 12.7323 24.929 13.1058Z" fill="white"/>
</g>
<defs>
<clipPath id="clip0_1341_6868">
<rect width="31" height="30" fill="white"/>
</clipPath>
</defs>
</svg>
