<svg width="22" height="26" viewBox="0 0 22 26" fill="none" xmlns="http://www.w3.org/2000/svg">
<path d="M21.0296 2.5286C20.8632 1.15972 20.822 0.602967 20.0559 0.379192C19.2904 0.155604 18.4277 -0.149458 15.6949 0.0835805C12.979 0.315446 14.5069 0.404419 10.5253 0.445826C6.54465 0.404422 8.07217 0.315451 5.35561 0.0835805C2.62347 -0.149251 1.76131 0.155993 0.99483 0.379576C0.228945 0.603164 0.188124 1.15971 0.020749 2.52898C-0.146025 3.8986 0.730234 8.09305 1.29985 12.8141C1.86972 17.5352 2.20654 17.6627 4.48649 20.8767C6.76664 24.0903 7.58163 26 10.5253 26C13.469 26 14.229 24.09 16.5084 20.8762C18.788 17.662 19.1803 17.5345 19.7501 12.8136C20.3204 8.09265 21.1964 3.89806 21.0293 2.52849L21.0296 2.5286ZM3.50374 9.62591C4.50804 8.77528 4.81597 8.46251 6.00017 8.48159C7.18397 8.49989 8.09623 9.27425 8.11161 9.79309C6.06697 10.373 3.50374 9.62591 3.50374 9.62591ZM10.4975 20.4903C8.11127 20.4903 6.54174 18.5643 6.00653 16.9707C8.23447 18.0689 9.83176 18.228 10.4975 18.228C11.1631 18.228 12.76 18.0689 14.9883 16.9707C14.4537 18.5643 12.8834 20.4903 10.4975 20.4903ZM12.8834 9.79304C12.8988 9.27425 13.8105 8.49988 14.9947 8.48154C16.1785 8.46248 16.4866 8.77504 17.4907 9.62586C17.4909 9.62605 14.9279 10.3731 12.8834 9.79304Z" fill="white"/>
</svg>
