<svg width="26" height="26" viewBox="0 0 26 26" fill="none" xmlns="http://www.w3.org/2000/svg">
<path d="M17.1176 2.39469C16.6735 1.95052 15.9043 2.25385 15.9043 2.87135V6.65219C15.9043 8.23385 17.2476 9.54469 18.8835 9.54469C19.9126 9.55552 21.3426 9.55552 22.5668 9.55552C23.1843 9.55552 23.5093 8.82969 23.076 8.39635C21.516 6.82552 18.721 3.99802 17.1176 2.39469Z" fill="white"/>
<path d="M22.209 11.0385H19.0782C16.5107 11.0385 14.4198 8.94768 14.4198 6.38018V3.24935C14.4198 2.65352 13.9323 2.16602 13.3365 2.16602H8.74315C5.40648 2.16602 2.70898 4.33268 2.70898 8.20018V17.7985C2.70898 21.666 5.40648 23.8327 8.74315 23.8327H17.2582C20.5948 23.8327 23.2923 21.666 23.2923 17.7985V12.1218C23.2923 11.526 22.8048 11.0385 22.209 11.0385ZM12.459 19.2285H8.12565C7.68148 19.2285 7.31315 18.8602 7.31315 18.416C7.31315 17.9718 7.68148 17.6035 8.12565 17.6035H12.459C12.9032 17.6035 13.2715 17.9718 13.2715 18.416C13.2715 18.8602 12.9032 19.2285 12.459 19.2285ZM14.6257 14.8952H8.12565C7.68148 14.8952 7.31315 14.5268 7.31315 14.0827C7.31315 13.6385 7.68148 13.2702 8.12565 13.2702H14.6257C15.0698 13.2702 15.4382 13.6385 15.4382 14.0827C15.4382 14.5268 15.0698 14.8952 14.6257 14.8952Z" fill="white"/>
</svg>
