<svg width="19" height="13" viewBox="0 0 19 13" fill="none" xmlns="http://www.w3.org/2000/svg">
<path d="M16.2501 1.287C14.4917 0.44525 12.1575 0 9.5 0C6.84254 0 4.50826 0.44525 2.74991 1.287C0.991562 2.12875 0 3.31337 0 4.55V8.45C0 9.68662 1.00259 10.8753 2.74991 11.713C4.49723 12.5507 6.84254 13 9.5 13C12.1575 13 14.4917 12.5548 16.2501 11.713C18.0084 10.8713 19 9.68662 19 8.45V4.55C19 3.31337 17.9974 2.12469 16.2501 1.287ZM8.82143 9.087V11.687C7.20982 11.6366 5.85268 11.4091 4.75 11.0784V8.53531C6.07927 8.87455 7.44611 9.06031 8.82143 9.08862V9.087ZM10.1786 9.087C11.5539 9.05868 12.9207 8.87292 14.25 8.53369V11.0776C13.1473 11.4083 11.7902 11.6358 10.1786 11.6862V9.087ZM1.35714 8.45V6.94931C1.78418 7.28886 2.25169 7.57878 2.74991 7.813C2.95603 7.91131 3.17402 8.00394 3.39286 8.09169V10.5625C2.05013 9.9255 1.35714 9.12356 1.35714 8.45ZM15.6071 10.5625V8.09169C15.8285 8.00394 16.044 7.91131 16.2501 7.813C16.7483 7.57878 17.2158 7.28886 17.6429 6.94931V8.45C17.6429 9.12356 16.9499 9.9255 15.6071 10.5625Z" fill="#35C1FF"/>
<ellipse cx="10" cy="4" rx="5" ry="2" fill="#FEFFFF"/>
</svg>
