<svg width="25" height="25" viewBox="0 0 25 25" fill="none" xmlns="http://www.w3.org/2000/svg">
<path d="M21.0526 8.14583L13.0317 12.7917C12.7088 12.9792 12.3026 12.9792 11.9692 12.7917L3.94838 8.14583C3.37547 7.8125 3.22963 7.03125 3.66713 6.54167C3.96922 6.19792 4.31297 5.91667 4.67755 5.71875L10.3234 2.59375C11.5317 1.91667 13.4901 1.91667 14.6984 2.59375L20.3442 5.71875C20.7088 5.91667 21.0526 6.20833 21.3546 6.54167C21.7713 7.03125 21.6255 7.8125 21.0526 8.14583Z" fill="white"/>
<path d="M11.9076 14.7308V21.835C11.9076 22.6266 11.1055 23.1475 10.3971 22.8037C8.2513 21.7516 4.63672 19.7829 4.63672 19.7829C3.36589 19.0641 2.32422 17.2516 2.32422 15.762V10.387C2.32422 9.56412 3.1888 9.04329 3.89714 9.44954L11.3867 13.7933C11.6992 13.9912 11.9076 14.3454 11.9076 14.7308Z" fill="white"/>
<path d="M13.0938 14.7308V21.835C13.0938 22.6266 13.8958 23.1475 14.6042 22.8037C16.75 21.7516 20.3646 19.7829 20.3646 19.7829C21.6354 19.0641 22.6771 17.2516 22.6771 15.762V10.387C22.6771 9.56412 21.8125 9.04329 21.1042 9.44954L13.6146 13.7933C13.3021 13.9912 13.0938 14.3454 13.0938 14.7308Z" fill="white"/>
</svg>
