<svg width="26" height="26" viewBox="0 0 26 26" fill="none" xmlns="http://www.w3.org/2000/svg">
<path d="M18.2321 16.9435C18.9579 16.4668 19.9112 16.9868 19.9112 17.8535V19.251C19.9112 20.6268 18.8387 22.1002 17.5496 22.5335L14.0937 23.6818C13.4871 23.8877 12.5012 23.8877 11.9054 23.6818L8.44956 22.5335C7.14956 22.1002 6.08789 20.6268 6.08789 19.251V17.8427C6.08789 16.9868 7.04122 16.4668 7.75622 16.9327L9.98789 18.3843C10.8437 18.9585 11.9271 19.2402 13.0104 19.2402C14.0937 19.2402 15.1771 18.9585 16.0329 18.3843L18.2321 16.9435Z" fill="white"/>
<path d="M21.6442 6.99844L15.155 2.74094C13.985 1.97177 12.0567 1.97177 10.8867 2.74094L4.365 6.99844C2.27417 8.3526 2.27417 11.4184 4.365 12.7834L6.09833 13.9101L10.8867 17.0301C12.0567 17.7993 13.985 17.7993 15.155 17.0301L19.9108 13.9101L21.395 12.9351V16.2501C21.395 16.6943 21.7633 17.0626 22.2075 17.0626C22.6517 17.0626 23.02 16.6943 23.02 16.2501V10.9201C23.4533 9.5226 23.0092 7.8976 21.6442 6.99844Z" fill="white"/>
</svg>
