<svg width="26" height="26" viewBox="0 0 26 26" fill="none" xmlns="http://www.w3.org/2000/svg">
<path d="M11.9161 15.7077L5.49731 14.8952C5.04592 14.841 4.75234 14.5973 4.61656 14.1639C4.48078 13.7306 4.57576 13.3605 4.90148 13.0535L15.9786 2.43687C16.0688 2.34659 16.1772 2.2787 16.3036 2.2332C16.4299 2.1877 16.6015 2.16531 16.8181 2.16603C17.1793 2.16603 17.4548 2.3195 17.6447 2.62645C17.8347 2.93339 17.839 3.24937 17.6577 3.57437L14.0827 10.291L20.5015 11.1035C20.9529 11.1577 21.2465 11.4014 21.3822 11.8348C21.518 12.2681 21.423 12.6383 21.0973 12.9452L10.0202 23.5619C9.92995 23.6521 9.82162 23.72 9.69523 23.7655C9.56884 23.811 9.39731 23.8334 9.18064 23.8327C8.81953 23.8327 8.54401 23.6792 8.35406 23.3723C8.16412 23.0653 8.15978 22.7494 8.34106 22.4244L11.9161 15.7077Z" fill="white"/>
</svg>
