<svg width="26" height="26" viewBox="0 0 26 26" fill="none" xmlns="http://www.w3.org/2000/svg">
<path d="M6.50065 14.084C3.51065 14.084 1.08398 16.4998 1.08398 19.5007C1.08398 22.5015 3.51065 24.9173 6.50065 24.9173C9.49065 24.9173 11.9173 22.4907 11.9173 19.5007C11.9173 16.5107 9.50148 14.084 6.50065 14.084ZM4.29065 17.2907H6.50065C6.91232 17.2907 7.23732 17.6265 7.23732 18.0273C7.23732 18.4282 6.91232 18.764 6.50065 18.764H4.29065C3.87898 18.764 3.55398 18.4282 3.55398 18.0273C3.55398 17.6265 3.87898 17.2907 4.29065 17.2907ZM8.71065 21.7107H4.29065C3.87898 21.7107 3.55398 21.3748 3.55398 20.974C3.55398 20.5732 3.88982 20.2373 4.29065 20.2373H8.72148C9.13315 20.2373 9.45815 20.5732 9.45815 20.974C9.45815 21.3748 9.12232 21.7107 8.71065 21.7107Z" fill="white"/>
<path d="M18.416 3.25H7.58268C4.33268 3.25 2.16602 4.875 2.16602 8.66667V12.0683C2.16602 12.8592 2.97852 13.3575 3.70435 13.0433C4.89602 12.5233 6.25018 12.3283 7.66935 12.5558C10.5077 13.0217 12.826 15.2642 13.4002 18.0808C13.5627 18.9042 13.5843 19.7058 13.476 20.475C13.3893 21.1142 13.9093 21.6775 14.5485 21.6775H18.416C21.666 21.6775 23.8327 20.0525 23.8327 16.2608V8.66667C23.8327 4.875 21.666 3.25 18.416 3.25ZM18.9252 9.30583L15.5343 12.0142C14.8193 12.5883 13.9093 12.87 12.9993 12.87C12.0893 12.87 11.1685 12.5883 10.4643 12.0142L7.07352 9.30583C6.72685 9.02417 6.67268 8.50417 6.94352 8.1575C7.22518 7.81083 7.73435 7.74583 8.08102 8.0275L11.4718 10.7358C12.2952 11.3967 13.6927 11.3967 14.516 10.7358L17.9069 8.0275C18.2535 7.74583 18.7735 7.8 19.0443 8.1575C19.326 8.50417 19.2718 9.02417 18.9252 9.30583Z" fill="white"/>
</svg>
