<svg width="26" height="26" viewBox="0 0 26 26" fill="none" xmlns="http://www.w3.org/2000/svg">
<path d="M19.0227 2.16602H6.94352C4.31102 2.16602 2.16602 4.31102 2.16602 6.94352V13.9852V14.2018C2.16602 16.8452 4.31102 18.9793 6.94352 18.9793H11.1035C11.6993 18.9793 12.1868 19.4669 12.1868 20.0627V21.1135C12.1868 21.7093 11.6993 22.1968 11.1035 22.1968H8.48185C8.03768 22.1968 7.66935 22.5652 7.66935 23.0093C7.66935 23.4535 8.02685 23.8327 8.48185 23.8327H17.5277C17.9718 23.8327 18.3402 23.4643 18.3402 23.0202C18.3402 22.576 17.9718 22.2077 17.5277 22.2077H14.906C14.3102 22.2077 13.8227 21.7202 13.8227 21.1243V20.0735C13.8227 19.4777 14.3102 18.9902 14.906 18.9902H19.0335C21.6768 18.9902 23.811 16.8452 23.811 14.2127V13.996V6.95435C23.8002 4.31102 21.6552 2.16602 19.0227 2.16602Z" fill="white"/>
</svg>
