<svg width="26" height="26" viewBox="0 0 26 26" fill="none" xmlns="http://www.w3.org/2000/svg">
<path d="M22.75 23.834H3.25C2.80583 23.834 2.4375 23.4657 2.4375 23.0215C2.4375 22.5773 2.80583 22.209 3.25 22.209H22.75C23.1942 22.209 23.5625 22.5773 23.5625 23.0215C23.5625 23.4657 23.1942 23.834 22.75 23.834Z" fill="white"/>
<path d="M20.6051 3.77046C18.5035 1.66879 16.4451 1.61462 14.2893 3.77046L12.9785 5.08129C12.8701 5.18962 12.8268 5.36296 12.8701 5.51462C13.6935 8.38546 15.9901 10.6821 18.861 11.5055C18.9043 11.5163 18.9476 11.5271 18.991 11.5271C19.1101 11.5271 19.2185 11.4838 19.3051 11.3971L20.6051 10.0863C21.6776 9.02462 22.1976 7.99546 22.1976 6.95546C22.2085 5.88296 21.6885 4.84296 20.6051 3.77046Z" fill="white"/>
<path d="M16.911 12.4914C16.5968 12.3397 16.2935 12.188 16.001 12.0147C15.7627 11.8739 15.5352 11.7222 15.3077 11.5597C15.1235 11.4405 14.9068 11.2672 14.701 11.0939C14.6793 11.083 14.6035 11.018 14.5168 10.9314C14.1593 10.628 13.7585 10.238 13.401 9.80469C13.3685 9.78302 13.3143 9.70719 13.2385 9.60969C13.1302 9.47969 12.946 9.26302 12.7835 9.01385C12.6535 8.85135 12.5018 8.61302 12.361 8.37469C12.1877 8.08219 12.036 7.78969 11.8843 7.48635C11.852 7.41706 11.8212 7.34827 11.7916 7.28007C11.6465 6.94566 11.2114 6.84846 10.9537 7.10622L4.70185 13.358C4.56102 13.4989 4.43102 13.7697 4.39852 13.9539L3.81352 18.103C3.70518 18.8397 3.91102 19.533 4.36602 19.9989C4.75602 20.378 5.29768 20.5839 5.88268 20.5839C6.01268 20.5839 6.14268 20.573 6.27268 20.5514L10.4327 19.9664C10.6277 19.9339 10.8985 19.8039 11.0285 19.663L17.2732 13.4184C17.5327 13.1588 17.4346 12.7139 17.0966 12.5708C17.0357 12.5451 16.974 12.5186 16.911 12.4914Z" fill="white"/>
</svg>
