<svg width="25" height="24" viewBox="0 0 25 24" fill="none" xmlns="http://www.w3.org/2000/svg">
<path d="M11.45 10.0018L12.7434 2.1585C12.8427 1.3956 12.6328 0.874632 12.1951 0.798775C11.7765 0.726119 11.2318 1.09174 11.0875 1.75183L9.58789 10.1801C9.78878 10.126 10.0094 10.0787 10.2487 10.0443C10.5932 9.99496 10.9973 9.97115 11.45 10.0018Z" fill="white"/>
<path d="M21.0217 11.2601C20.2168 11.0702 19.3795 11.5587 18.4615 12.7532C17.9599 13.4058 17.3145 13.8764 16.4882 14.1919C16.3467 14.246 16.2039 14.2991 16.0606 14.3525C14.5129 14.928 12.9125 15.5233 11.9284 17.7194C11.8841 17.8187 11.7675 17.8631 11.6684 17.8185C11.5693 17.7742 11.525 17.6576 11.5693 17.5585C12.6208 15.2119 14.3755 14.5594 15.9236 13.9836C16.016 13.9493 16.1073 13.9148 16.199 13.8804C16.1347 13.2116 16.5147 12.3738 16.5321 12.3355L19.9014 4.7112C20.2356 3.81155 19.9373 3.31685 19.5795 3.16667C19.1874 3.00211 18.6043 3.18241 18.2956 3.84116C18.2946 3.8435 18.2933 3.84585 18.2921 3.84819L14.5761 11.022C14.8055 11.157 15.0387 11.3071 15.2759 11.4761C15.3644 11.539 15.3852 11.6619 15.3221 11.7505C15.2838 11.8044 15.2231 11.8332 15.1615 11.8332C15.122 11.8332 15.0822 11.8213 15.0475 11.7967C13.4923 10.6896 11.8597 10.2173 10.326 10.4314C9.16582 10.5933 8.45765 11.0927 8.45079 11.0977C8.36257 11.161 8.23969 11.1409 8.17624 11.0527C8.11296 10.9647 8.13272 10.8419 8.22061 10.7785C8.22998 10.7716 8.30481 10.7186 8.43841 10.6429L8.43874 4.06518C8.41581 3.34681 8.04098 2.95943 7.68206 2.94824C7.3382 2.93786 6.96219 3.28256 6.88701 4.07744C6.85219 4.63205 6.69533 6.25394 6.51369 8.13112C6.2547 10.8073 5.93246 14.138 5.80136 16.0395C5.55627 18.9893 7.24663 19.9626 8.15482 20.4855C8.26715 20.5502 8.36425 20.6061 8.44444 20.6586C8.53534 20.7182 8.56062 20.8403 8.50102 20.9312C8.46319 20.9888 8.40041 21.0201 8.33629 21.0201C8.29929 21.0201 8.26179 21.0097 8.22848 20.9879C8.158 20.9417 8.06558 20.8885 7.95844 20.8267C7.6787 20.6657 7.30637 20.4511 6.93188 20.1393L7.08708 24H14.3779C13.8 22.3135 14.0799 20.9963 14.3044 20.3499C13.9271 20.468 13.494 20.5301 12.9521 20.5301C12.8325 20.5301 12.708 20.5271 12.5772 20.521C12.4686 20.516 12.3847 20.4239 12.3897 20.3153C12.3948 20.2068 12.4863 20.1234 12.5955 20.1278C14.362 20.2105 14.9033 19.734 16.0892 18.6912C16.527 18.3063 17.0718 17.8274 17.7888 17.289C18.0789 17.071 18.3191 16.8052 18.5028 16.4986C18.8925 15.8481 20.2497 13.6155 21.3516 12.1971C21.4756 12.0374 21.5096 11.8283 21.4423 11.6376C21.3742 11.4446 21.221 11.3071 21.022 11.2602L21.0217 11.2601Z" fill="white"/>
<path d="M14.193 10.8096L16.8847 1.55379C17.0516 1.00269 16.9859 0.500619 16.7099 0.208804C16.5435 0.0330216 16.3191 -0.036454 16.0945 0.0182917C15.694 0.115723 15.3515 0.564891 15.1545 1.25026C15.1377 1.30551 13.5693 6.4964 12.4883 10.162C13.0168 10.2882 13.5885 10.4938 14.193 10.8096Z" fill="white"/>
<path d="M5.4514 20.1486C3.62277 19.4694 3.07167 17.939 3.06631 17.9236C3.03082 17.821 2.91932 17.7666 2.81654 17.8017C2.71375 17.837 2.659 17.9489 2.69432 18.0517C2.71826 18.1215 3.3047 19.771 5.31448 20.5174C5.33708 20.5258 5.36018 20.5298 5.38295 20.5298C5.46281 20.5298 5.53798 20.4808 5.56744 20.4016C5.60527 20.2996 5.55335 20.1865 5.4514 20.1486Z" fill="white"/>
<path d="M4.97493 21.3534C3.10614 20.8024 2.45021 19.3163 2.44233 19.2979C2.39997 19.1979 2.28479 19.1512 2.18468 19.1934C2.08457 19.2356 2.0377 19.3511 2.08005 19.4512C2.10885 19.5192 2.80747 21.1245 4.86375 21.7307C4.88233 21.7362 4.90108 21.7387 4.9195 21.7387C5.00454 21.7387 5.08289 21.6833 5.10817 21.5976C5.13864 21.4935 5.07906 21.3842 4.97493 21.3534Z" fill="white"/>
<path d="M4.45881 8.05693C4.56679 8.04438 4.64413 7.94678 4.63157 7.8388C4.61902 7.73082 4.52075 7.65381 4.41344 7.66603C1.3438 8.02328 0.0745842 10.3968 0.0222985 10.4976C-0.0279258 10.5939 0.00957506 10.7126 0.105836 10.7628C0.134965 10.778 0.165934 10.7852 0.19674 10.7852C0.267553 10.7852 0.336193 10.7469 0.371348 10.6796C0.383234 10.6566 1.60263 8.38925 4.45902 8.05694L4.45881 8.05693Z" fill="white"/>
<path d="M4.39184 9.7245C4.38297 9.61619 4.28754 9.53516 4.17956 9.54454C2.54529 9.6793 1.04328 11.6869 1.03192 11.7068C0.97785 11.8011 1.01066 11.9213 1.10491 11.9753C1.13572 11.9929 1.16937 12.0013 1.20234 12.0013C1.26713 12.0013 1.33025 11.9693 1.36741 11.9119C1.40659 11.8593 2.80681 10.0526 4.21154 9.93677C4.32019 9.92773 4.40088 9.83265 4.39184 9.7245Z" fill="white"/>
<path d="M24.7774 10.8572C24.0176 8.09794 21.2323 7.08544 21.1139 7.04379C21.0117 7.00746 20.8992 7.06137 20.8628 7.16382C20.8267 7.26628 20.8804 7.37861 20.9829 7.41494C21.0098 7.42448 23.6921 8.39864 24.3979 10.9617C24.4218 11.0491 24.5012 11.1064 24.5874 11.1064C24.6046 11.1064 24.6222 11.104 24.6396 11.0992C24.7446 11.0704 24.8062 10.962 24.7774 10.8572L24.7774 10.8572Z" fill="white"/>
<path d="M21.1164 8.65779C21.0146 8.62029 20.9016 8.67219 20.8639 8.77414C20.8261 8.87592 20.8781 8.98909 20.9799 9.02692C20.9931 9.03178 22.3045 9.53101 22.7958 10.698C22.8275 10.7732 22.9005 10.8184 22.9773 10.8184C23.0027 10.8184 23.0287 10.8134 23.0536 10.803C23.1537 10.7608 23.2008 10.6454 23.1586 10.5453C22.5998 9.21826 21.1768 8.6802 21.1164 8.65779Z" fill="white"/>
<path d="M20.0436 19.1402C20.0922 19.0429 20.0528 18.9248 19.9556 18.8762C19.8585 18.8277 19.7403 18.867 19.6916 18.9643C18.6518 21.044 16.8148 21.5002 16.7964 21.5045C16.6907 21.5293 16.6251 21.6349 16.6497 21.7407C16.6708 21.8317 16.7517 21.8929 16.8412 21.8929C16.856 21.8929 16.871 21.8912 16.8861 21.8877C16.9683 21.8685 18.9178 21.3919 20.0436 19.1402Z" fill="white"/>
<path d="M20.3226 20.7349C20.2235 20.6904 20.107 20.7346 20.0625 20.8337C19.6441 21.7649 18.2889 22.3573 18.2754 22.3632C18.1756 22.406 18.1294 22.5217 18.1723 22.6217C18.2042 22.6962 18.2769 22.7409 18.3532 22.7409C18.3792 22.7409 18.4055 22.7357 18.4307 22.725C18.4922 22.6987 19.9399 22.0672 20.4216 20.9953C20.4659 20.8958 20.4217 20.7795 20.3226 20.7349Z" fill="white"/>
</svg>
