<svg width="26" height="26" viewBox="0 0 26 26" fill="none" xmlns="http://www.w3.org/2000/svg">
<g clip-path="url(#clip0_1038_3178)">
<path d="M7.64197 3.16266L7.69234 3.24147C6.9637 3.33803 6.23669 3.44651 5.51159 3.56687C4.76369 3.69281 3.15697 4.28837 2.08772 4.70519L2.08122 4.62841L0.8125 5.04075L1.17731 10.0514L2.53216 10.1668L2.52403 10.0709L6.05353 10.3439C6.11609 14.5125 5.62006 19.4655 5.28288 22.3612L5.16466 22.334L5.07203 24.156C5.07203 24.156 8.46706 25.1184 12.9967 25.1875V23.3025L12.9992 5.60422L9.11544 0.8125L7.64197 3.16266ZM1.55756 9.67606L1.24109 5.32878L1.71844 5.17319L2.08853 9.72156L1.55756 9.67606ZM12.5905 24.7727C9.13819 24.6772 6.39194 24.0683 5.49453 23.8461L5.54572 22.8349C6.64584 23.0685 9.50259 23.6125 12.5905 23.7006V24.7727ZM11.8324 22.3076C11.3067 22.3076 10.8794 21.9099 10.8794 21.4195C10.8794 20.9292 11.3067 20.5315 11.8324 20.5315C12.3585 20.5315 12.7855 20.9292 12.7855 21.4195C12.7855 21.9099 12.3585 22.3076 11.8324 22.3076ZM11.8324 19.0686C11.3067 19.0686 10.8794 18.6708 10.8794 18.1801C10.8794 17.6902 11.3067 17.2924 11.8324 17.2924C12.3585 17.2924 12.7855 17.6902 12.7855 18.1801C12.7855 18.6708 12.3585 19.0686 11.8324 19.0686ZM11.8324 15.8299C11.3067 15.8299 10.8794 15.4322 10.8794 14.9419C10.8794 14.4515 11.3067 14.0534 11.8324 14.0534C12.3585 14.0534 12.7855 14.4511 12.7855 14.9419C12.7855 15.4318 12.3585 15.8299 11.8324 15.8299ZM11.8324 12.5905C11.3067 12.5905 10.8794 12.1932 10.8794 11.7028C10.8794 11.2121 11.3067 10.8144 11.8324 10.8144C12.3585 10.8144 12.7855 11.2121 12.7855 11.7028C12.7855 12.1936 12.3585 12.5905 11.8324 12.5905ZM12.7855 8.46381C12.7855 8.95416 12.3585 9.35188 11.8324 9.35188C11.3067 9.35188 10.8794 8.95416 10.8794 8.46381C10.8794 7.97347 11.3067 7.57575 11.8324 7.57575C12.3585 7.57575 12.7855 7.97347 12.7855 8.46381ZM12.4207 5.53597L10.5499 6.97084L8.12216 3.16103L9.15769 1.51003L12.4207 5.53597Z" fill="white"/>
<path d="M23.9194 4.62841L23.9129 4.70519C22.8436 4.28919 21.2365 3.69281 20.489 3.56687C19.7639 3.44671 19.0369 3.33823 18.3083 3.24147L18.3586 3.16266L16.8852 0.8125H9.11523L11.1388 3.30809H14.8616L12.999 5.60422L13.4422 5.94384V25.1757C17.7497 25.0534 20.9286 24.156 20.9286 24.156L20.836 22.334L20.7181 22.3616C20.381 19.4655 19.8841 14.5125 19.9471 10.3439L23.4754 10.0709L23.4672 10.1668L24.8225 10.0514L25.1873 5.04075L23.9194 4.62841ZM16.8429 1.50963L17.8785 3.16103L15.4503 6.97084L13.5775 5.53556L16.8429 1.50963ZM20.4549 22.8361L20.5061 23.8457C19.6473 24.0573 17.0956 24.6228 13.8485 24.7548V23.686C16.7422 23.5771 19.4011 23.0632 20.4549 22.8361ZM24.4422 9.67606L23.9109 9.72116L24.2822 5.17359L24.7587 5.32878L24.4422 9.67606Z" fill="white"/>
</g>
<defs>
<clipPath id="clip0_1038_3178">
<rect width="26" height="26" fill="white"/>
</clipPath>
</defs>
</svg>
