<svg width="22" height="24" viewBox="0 0 22 24" fill="none" xmlns="http://www.w3.org/2000/svg">
<path d="M11.062 7.85071C11.1282 7.84695 11.1811 7.80052 11.1866 7.74188L11.2423 7.14716L12.0623 7.18644L11.9957 7.89699H11.9959C11.9899 7.96259 12.0448 8.02011 12.1184 8.02556L14.4153 8.1953L14.4155 8.19511C14.4221 8.19568 14.4286 8.19568 14.4354 8.1953C14.5016 8.19135 14.5546 8.14511 14.5601 8.08628L14.7057 6.53213C14.7118 6.46671 14.657 6.4092 14.5831 6.40356L12.2863 6.23382V6.23401C12.2128 6.2295 12.1487 6.27781 12.1415 6.34284L12.0848 6.94887L11.2647 6.90959L11.3325 6.18778H11.3323C11.3384 6.12218 11.2836 6.06466 11.2097 6.05921L8.91284 5.88947C8.83918 5.88458 8.77483 5.93308 8.76806 5.9983L8.62243 7.55245V7.55264C8.6165 7.61806 8.67132 7.67557 8.74498 7.68103L11.0418 7.85076H11.0421C11.0486 7.85114 11.0554 7.85114 11.062 7.85076L11.062 7.85071ZM14.4273 6.63095L14.3039 7.94787L12.2742 7.79806L12.3413 7.08077V7.08021L12.3974 6.48115L14.4273 6.63095ZM8.90068 7.45353L9.02408 6.13661L11.0538 6.28643L10.9304 7.60334L8.90068 7.45353ZM13.0549 5.79072C13.0291 5.72907 13.0642 5.66065 13.1335 5.63753C14.0225 5.34354 14.39 5.90595 14.3935 5.91177C14.4295 5.96892 14.4067 6.04128 14.3425 6.07343C14.2782 6.10576 14.1967 6.08565 14.1601 6.02869C14.1476 6.0099 13.8919 5.63997 13.2274 5.86065C13.158 5.8832 13.0812 5.85219 13.0549 5.79072ZM9.39237 5.5832C9.3729 5.5567 9.36612 5.52436 9.37353 5.49354C9.38094 5.46271 9.4019 5.43564 9.43153 5.41835C9.6123 5.32117 9.82291 5.27662 10.0335 5.29091C10.2441 5.30501 10.4446 5.37756 10.6067 5.49786C10.6632 5.53997 10.6708 5.6146 10.6239 5.66516C10.5769 5.71554 10.4926 5.72287 10.4357 5.68133C10.1927 5.50313 9.8506 5.47794 9.57777 5.61798C9.54792 5.63527 9.51172 5.64148 9.4768 5.6349C9.44209 5.62832 9.41164 5.6097 9.39237 5.5832ZM11.6437 9.03753C11.6727 9.00595 11.6829 8.96404 11.6712 8.92475L11.4585 8.1924H11.4587C11.4407 8.12887 11.4839 8.06439 11.5552 8.04804C11.6266 8.03169 11.6996 8.06966 11.7182 8.133L11.931 8.86535C11.9614 8.97099 11.9377 9.08302 11.8658 9.17137C11.794 9.25971 11.6818 9.31535 11.5593 9.32287C11.5449 9.32362 11.5305 9.32381 11.5161 9.32343L11.0887 9.30952C11.0146 9.30708 10.9569 9.25182 10.9596 9.18621C10.9632 9.1208 11.0248 9.07005 11.0985 9.07137L11.5258 9.08527C11.5715 9.08715 11.6154 9.06949 11.6437 9.03753ZM13.0668 7.35144C13.0566 7.21365 13.1409 7.08414 13.2802 7.02305C13.4195 6.96215 13.5865 6.98151 13.7033 7.07249C13.8201 7.16347 13.8637 7.30801 13.8138 7.43866C13.7638 7.56929 13.6303 7.66046 13.4753 7.66949C13.2637 7.68152 13.081 7.53922 13.0668 7.35144ZM10.4601 6.96234C10.47 7.10012 10.3858 7.22964 10.2465 7.29054C10.1072 7.35163 9.94023 7.33208 9.82339 7.24092C9.70655 7.14994 9.66294 7.00558 9.71289 6.87493C9.76306 6.7443 9.89662 6.65313 10.0518 6.6441C10.2632 6.63207 10.4459 6.77455 10.4601 6.96234ZM12.8029 10.1503C12.2148 10.6817 11.6884 10.9626 11.2325 10.9891V10.9889C11.1059 10.997 10.9789 10.9834 10.858 10.949C10.0634 10.7203 9.8729 9.65055 9.8651 9.60502C9.85579 9.54976 9.89093 9.49619 9.94956 9.47607C10.0084 9.45596 10.0749 9.47495 10.1096 9.52156C10.4044 9.91743 11.8688 9.92909 12.42 9.9336C12.751 9.93623 12.7936 9.9366 12.8321 10.0189C12.8522 10.0639 12.8407 10.1154 12.8029 10.1503ZM13.7344 14.2308V12.5603C13.7344 12.5287 13.7204 12.4985 13.6952 12.4761C13.6701 12.4537 13.636 12.4411 13.6004 12.4411H13.5083C14.3055 11.9432 15.1166 11.0361 15.2845 9.38509C15.295 9.28076 15.3046 9.1785 15.3139 9.07719C15.4769 8.80463 16.88 6.35256 16.157 3.92637L16.3814 4.09028V4.09047C16.4237 4.12148 16.483 4.12637 16.531 4.10287C16.5793 4.07938 16.6064 4.03219 16.5996 3.98388C16.5863 3.88934 16.2512 1.65644 14.2297 0.568626C12.8304 -0.18422 10.9831 -0.189272 8.747 0.552085C8.63354 0.582536 5.99274 1.3453 6.45225 5.71397V5.71379C6.25603 5.79048 6.09537 5.92488 5.99716 6.09405C5.89915 6.26341 5.86931 6.45759 5.91312 6.64407C6.11887 7.74146 7.00512 8.48578 7.74197 8.54541C7.68376 9.10914 7.54575 11.2839 8.68007 12.4415L8.39981 12.4413C8.36425 12.4413 8.33017 12.4539 8.30498 12.4763C8.27979 12.4986 8.26582 12.5289 8.26582 12.5605V14.2295C3.38978 15.3571 0 19.3019 0 23.881C0 23.9126 0.0141822 23.9429 0.0393709 23.9652C0.0643483 23.9874 0.0986416 24 0.1342 24H5.44315L5.4749 21.3757C5.47681 21.3103 5.53692 21.2581 5.61037 21.2579C5.68446 21.2586 5.74394 21.3124 5.74309 21.3782L5.71134 24H16.2834L16.3152 21.3757C16.316 21.3101 16.3767 21.2575 16.4506 21.2583C16.5245 21.259 16.5838 21.3126 16.5833 21.3782L16.5516 24H21.866H21.8658C21.9014 24 21.9357 23.9874 21.9606 23.9652C21.9858 23.9428 22 23.9126 22 23.881C22 19.3099 18.5951 15.3459 13.7342 14.2304L13.7344 14.2308ZM8.02354 8.44287C8.02841 8.40771 8.01528 8.37238 7.98798 8.34662C7.96046 8.32087 7.92151 8.30734 7.88172 8.30959C7.23526 8.34719 6.36912 7.62614 6.17756 6.60468C6.09713 6.30919 6.28319 6.0077 6.60705 5.90881L6.61191 5.90674C6.62207 5.90242 6.63202 5.8981 6.64239 5.89396C6.64705 5.89246 6.65192 5.89058 6.65636 5.88851C6.99821 5.7731 7.36146 5.71633 7.72701 5.72103C7.79241 5.72197 7.84957 5.68155 7.86269 5.62441C8.1294 4.34845 8.97945 3.22743 10.2105 2.52795C10.0694 3.05203 9.97707 3.5855 9.93474 4.12305C9.93029 4.17681 9.96713 4.22643 10.0245 4.2441C10.0818 4.26177 10.1454 4.24298 10.1794 4.19843C10.3966 3.91402 11.5807 3.45761 12.1706 3.2518L12.7478 5.45033V5.45052C12.7626 5.50654 12.8204 5.54526 12.8852 5.54225C12.9485 5.53679 12.9999 5.4945 13.0114 5.43886L13.3568 3.10011C14.8766 4.16665 15.3363 5.80766 15.0491 9.03337C15.0392 9.14183 15.0288 9.25198 15.0176 9.36401C14.8336 11.1751 13.8423 12.0345 13.0014 12.4413H9.05179C7.65093 11.2879 8.01924 8.47378 8.02347 8.44294L8.02354 8.44287Z" fill="white"/>
</svg>
