<svg width="26" height="26" viewBox="0 0 26 26" fill="none" xmlns="http://www.w3.org/2000/svg">
<path d="M23.2923 14.0833C21.9636 13.5373 19.5007 11.375 15.1673 14.625C14.0282 13.988 11.9173 12.4583 8.66732 15.1667C8.28761 13.6197 8.21178 10.0988 8.66732 7.04167C8.8569 6.58667 9.63907 6.26438 11.9173 8.66667L14.6257 5.95833C14.4361 4.77533 13.0007 3.25 8.66732 3.25C7.04232 3.25 5.55923 4.63938 4.87565 7.04167C4.02144 9.49813 2.70898 15.1667 2.70898 18.4167C2.70898 19.4177 4.06315 21.6667 9.20898 21.6667C10.2923 21.6667 13.4611 21.7885 17.334 20.0417L20.584 22.75" fill="white"/>
</svg>
