<svg width="26" height="26" viewBox="0 0 26 26" fill="none" xmlns="http://www.w3.org/2000/svg">
<path d="M23.3996 14.3V23.4C23.3996 24.0896 23.1257 24.7509 22.6381 25.2385C22.1505 25.7261 21.4892 26 20.7996 26C20.11 26 19.4487 25.7261 18.9611 25.2385C18.4735 24.7509 18.1996 24.0896 18.1996 23.4V16.9H15.5996V3.9C15.5996 2.86566 16.0105 1.87368 16.7419 1.14228C17.4733 0.410892 18.4653 0 19.4996 0L23.3996 0V14.3ZM5.19961 13C4.51005 13 3.84873 12.7261 3.36113 12.2385C2.87354 11.7509 2.59961 11.0896 2.59961 10.4V1.3C2.59961 0.955218 2.73657 0.624558 2.98037 0.380761C3.22417 0.136964 3.55483 0 3.89961 0C4.24439 0 4.57505 0.136964 4.81885 0.380761C5.06265 0.624558 5.19961 0.955218 5.19961 1.3V6.5H6.49961V1.3C6.49961 0.955218 6.63657 0.624558 6.88037 0.380761C7.12417 0.136964 7.45483 0 7.79961 0C8.14439 0 8.47505 0.136964 8.71885 0.380761C8.96265 0.624558 9.09961 0.955218 9.09961 1.3V6.5H10.3996V1.3C10.3996 0.955218 10.5366 0.624558 10.7804 0.380761C11.0242 0.136964 11.3548 0 11.6996 0C12.0444 0 12.3751 0.136964 12.6188 0.380761C12.8626 0.624558 12.9996 0.955218 12.9996 1.3V10.4C12.9996 11.0896 12.7257 11.7509 12.2381 12.2385C11.7505 12.7261 11.0892 13 10.3996 13V23.4C10.3996 24.0896 10.1257 24.7509 9.63809 25.2385C9.15049 25.7261 8.48917 26 7.79961 26C7.11005 26 6.44873 25.7261 5.96113 25.2385C5.47354 24.7509 5.19961 24.0896 5.19961 23.4V13Z" fill="white"/>
</svg>
