<svg width="26" height="26" viewBox="0 0 26 26" fill="none" xmlns="http://www.w3.org/2000/svg">
<path d="M5.14115 25.386L4.41345 24.6545L3.69926 26L3.15333 25.7075L3.95573 24.1948L3.20268 23.4384L1.21581 25.4345L0.777795 24.995L2.76466 22.9983L2.00336 22.2333L0.291382 23.1499L0 22.6007L1.54551 21.7734L0.770067 20.9939L5.65201 19.2823L11.1015 5.13616L11.625 5.66223C12.0334 4.78594 12.4809 4.07183 12.4809 4.07183C12.4809 4.07183 12.8157 5.54854 12.8187 6.86173L13.035 7.07943L13.9061 5.43752C13.8982 5.43289 13.89 5.42956 13.8822 5.42461C13.8444 5.40149 13.8134 5.37739 13.7779 5.35394L13.776 5.36018C13.7622 5.34932 13.7517 5.3377 13.7385 5.32716C13.357 5.06848 13.1246 4.79421 13.0118 4.51197C11.6451 2.23878 15.4403 0 15.4403 0L14.9829 1.4737C15.978 0.773914 16.9609 0.297108 16.9609 0.297108C16.9609 0.297108 16.9993 1.3925 16.8474 2.60417L17.9319 1.51049C17.9319 1.51049 17.7316 5.92746 15.0921 5.77354C14.9056 5.79301 14.6981 5.76429 14.4725 5.69222L13.4925 7.53969L13.7766 7.82515L8.53866 19.8205L6.84351 20.48L5.14115 25.386ZM21.9817 13.6185C21.9817 13.6185 20.5118 13.2828 19.2052 13.2791L19.0365 13.1099L20.6482 12.2468C20.6558 12.258 20.6639 12.2696 20.6712 12.2812L20.6653 12.2831C20.6755 12.297 20.6867 12.3078 20.6978 12.3211C20.9553 12.704 21.2282 12.9376 21.5091 13.0513C23.7726 14.4239 26 10.6107 26 10.6107L24.5334 11.0703C25.2298 10.0701 25.7043 9.08283 25.7043 9.08283C25.7043 9.08283 24.6148 9.04421 23.4086 9.19652L24.4977 8.10746C24.4977 8.10746 20.1019 8.30903 20.2551 10.9607C20.233 11.1781 20.2695 11.4213 20.3711 11.6909L18.5803 12.6502L17.7121 11.7782C18.9449 11.0826 20.3097 9.56962 20.3097 9.56962C20.3097 9.56962 17.5875 9.70278 16.4019 10.4621L16.2593 10.3195L18.094 8.47606C18.4247 8.74765 18.7391 8.90071 19.0335 8.94201C21.8224 9.81101 23.2046 5.12834 23.2046 5.12834L21.7531 6.01196C22.2355 4.75339 22.4834 3.56851 22.4834 3.56851C22.4834 3.56851 21.3045 3.81762 20.0517 4.30272L20.932 2.84452C20.932 2.84452 16.2715 4.23258 17.1355 7.03487C17.1796 7.34983 17.3453 7.68614 17.6502 8.04196L15.8212 9.87973L15.6227 9.67978C16.3783 8.48898 16.5105 5.75321 16.5105 5.75321C16.5105 5.75321 15.0047 7.12481 14.3122 8.36361L14.0205 8.07019L8.96097 19.656L20.9223 15.0045L20.3991 14.4781C21.2709 14.068 21.9815 13.6183 21.9815 13.6183L21.9817 13.6185Z" fill="white"/>
</svg>
