<svg width="65" height="65" viewBox="0 0 65 65" fill="none" xmlns="http://www.w3.org/2000/svg">
<path d="M25.1245 41.2424C25.2058 41.2424 25.2872 41.2331 25.3706 41.2144C25.9975 41.0776 26.3944 40.4621 26.2597 39.8357C25.8162 37.7814 23.9733 36.2959 21.8749 36.2959C19.772 36.2959 17.929 37.7886 17.4901 39.8377C17.358 40.4666 17.7569 41.0816 18.3838 41.2164C19.0035 41.3324 19.6257 40.9516 19.7605 40.3227C19.9693 39.3315 20.8583 38.6166 21.8728 38.6166C22.8847 38.6166 23.7737 39.3383 23.9898 40.3248C24.1079 40.8683 24.5883 41.2424 25.1245 41.2424Z" fill="white"/>
<path d="M43.1142 36.2952C41.0159 36.2952 39.1729 37.7878 38.7274 39.8349C38.5927 40.4618 38.9896 41.0768 39.6165 41.2137C39.7025 41.2323 39.7838 41.2417 39.8626 41.2417C40.3942 41.2417 40.8791 40.8702 40.9952 40.3246C41.2086 39.3314 42.0998 38.6164 43.1122 38.6164C44.124 38.6164 45.0131 39.3381 45.2219 40.3225C45.3566 40.9515 45.9742 41.3323 46.6006 41.2162C47.2275 41.0815 47.6244 40.4665 47.4943 39.8375C47.0602 37.7806 45.2146 36.2952 43.1143 36.2952L43.1142 36.2952Z" fill="white"/>
<path d="M38.4947 50.4725C38.2346 50.8627 37.9284 51.2269 37.5963 51.5657C36.914 52.246 36.1249 52.775 35.2499 53.1372C33.5205 53.8615 31.4734 53.8636 29.7352 53.1372C28.8648 52.775 28.0757 52.246 27.3954 51.5657C27.0612 51.2269 26.7591 50.8627 26.4949 50.4725C26.1374 49.941 25.4178 49.7969 24.8841 50.1523C24.3525 50.5098 24.211 51.2316 24.5685 51.7611C24.9146 52.2787 25.3115 52.7636 25.7524 53.2024C26.6508 54.1008 27.6927 54.7992 28.844 55.2754C29.9932 55.7557 31.2211 56.0018 32.495 56.0018C33.7696 56.0018 34.9969 55.7583 36.1395 55.2754C37.2953 54.7998 38.3377 54.1008 39.2357 53.2024C39.6745 52.7636 40.0735 52.2786 40.4216 51.7611C40.7765 51.2295 40.6377 50.5098 40.1061 50.1523C39.574 49.7969 38.8496 49.9409 38.4947 50.4725Z" fill="white"/>
<path d="M64.9912 3.74389C64.9912 3.74389 63.754 3.72317 62.0852 4.04802C62.4473 1.78023 62.4706 0 62.4706 0C62.4706 0 59.4625 1.31599 56.6005 3.2729C56.4518 1.9823 56.2523 1.07461 56.2523 1.07461C56.2523 1.07461 48.6853 5.15049 51.4127 10.2177C47.6688 7.47903 43.3095 6.10705 39.6424 6.10705C37.1052 6.10705 34.6961 6.61998 32.4956 7.54375C30.2973 6.62205 27.8835 6.10705 25.3489 6.10705C21.6818 6.10705 17.3223 7.47637 13.5786 10.2177C16.3058 5.15062 8.74149 1.07461 8.74149 1.07461C8.74149 1.07461 8.5415 1.98441 8.39074 3.27503C5.53126 1.31813 2.52057 0.00212201 2.52057 0.00212201C2.52057 0.00212201 2.54129 1.78235 2.90603 4.05015C1.23722 3.7253 0 3.74394 0 3.74394C0 3.74394 2.39048 16.9697 9.69735 13.8827C5.45462 19.0585 3.31429 26.8343 6.64515 37.2424C5.51465 37.1564 4.38001 37.4538 3.52305 38.1289C2.78734 38.7045 1.60807 40.0858 1.97706 42.8385C2.41796 46.0902 5.04119 47.6362 6.95605 48.7734C7.90988 49.335 8.81082 49.8692 9.15434 50.4049L9.73255 51.3147C14.0779 59.4479 22.6474 65 32.4954 65C42.3441 65 50.9157 59.4433 55.2582 51.3147L55.8385 50.4049C56.1799 49.8687 57.0804 49.335 58.0343 48.7734C59.9493 47.6429 62.5718 46.0927 63.0154 42.8385C63.3869 40.0833 62.2051 38.7045 61.4694 38.1289C60.6083 37.4533 59.4777 37.1564 58.3452 37.2424C61.6807 26.8347 59.5384 19.0594 55.2951 13.8827C62.6025 16.9695 64.991 3.74394 64.991 3.74394L64.9912 3.74389ZM4.5799 42.4879C4.47525 41.7268 4.48923 40.7052 5.14619 40.1948C5.58244 39.8513 6.21401 39.7907 6.73834 39.9C6.7943 42.061 7.11915 44.1521 7.67818 46.1483C6.15128 45.2245 4.81666 44.2475 4.5799 42.4879ZM52.9798 50.0087L52.9197 50.1041L52.9337 50.1134C49.025 57.4089 41.3327 62.3805 32.4959 62.3805C23.6591 62.3805 15.9669 57.4016 12.0608 50.1134L12.0722 50.1041L12.0121 50.0087C10.3039 46.7799 9.32415 43.1035 9.32415 39.2109C9.32415 35.2183 10.3386 31.4632 12.1209 28.1856C12.6224 31.5093 13.2348 33.9537 13.2348 33.9537C13.2348 33.9537 19.8733 25.9877 20.3443 19.5163C20.4091 19.4769 20.4744 19.4376 20.5371 19.4003C24.2508 29.135 30.9681 31.8203 30.9681 31.8203C30.9681 31.8203 30.3645 27.647 29.1414 24.3675C31.0656 27.7844 34.9441 30.0335 37.1005 31.15C37.1005 31.15 34.8841 23.2049 31.3164 19.4097C31.3164 19.4097 40.3688 28.6522 46.8798 33.9147C45.6545 27.3389 42.0729 23.7945 39.4455 19.0622C42.479 22.8453 49.0921 29.7414 52.2024 31.0138C52.2024 31.0138 51.476 27.356 50.0667 24.2152C50.9278 25.2991 51.7334 26.4224 52.4924 27.5648C54.4955 30.9931 55.6653 34.967 55.6653 39.219C55.6653 43.1043 54.6882 46.7808 52.98 50.0095L52.9798 50.0087ZM59.8458 40.1902C60.5027 40.7077 60.5167 41.7222 60.4121 42.4859C60.1732 44.2475 58.8386 45.2272 57.3158 46.1464C57.8728 44.1528 58.1976 42.0543 58.2536 39.9001C58.7758 39.7913 59.4116 39.8467 59.8458 40.1902Z" fill="white"/>
</svg>
