<svg width="22" height="22" viewBox="0 0 22 22" fill="none" xmlns="http://www.w3.org/2000/svg">
<path d="M11 1.83331C5.93998 1.83331 1.83331 5.93998 1.83331 11C1.83331 16.06 5.93998 20.1666 11 20.1666C16.06 20.1666 20.1666 16.06 20.1666 11C20.1666 5.93998 16.06 1.83331 11 1.83331ZM15.5833 16.0141C14.0158 16.0141 12.5491 15.3358 11.3758 14.08C10.0466 15.2808 8.31415 16.0141 6.41665 16.0141C6.04081 16.0141 5.72915 15.7025 5.72915 15.3266C5.72915 14.9508 6.04081 14.6391 6.41665 14.6391C9.59748 14.6391 12.2283 12.1183 12.5675 8.89165H11H6.42581C6.04998 8.89165 5.73831 8.57998 5.73831 8.20415C5.73831 7.82831 6.04998 7.52581 6.42581 7.52581H10.3125V6.67331C10.3125 6.29748 10.6241 5.98581 11 5.98581C11.3758 5.98581 11.6875 6.29748 11.6875 6.67331V7.52581H13.2366C13.255 7.52581 13.2733 7.51665 13.2916 7.51665C13.31 7.51665 13.3283 7.52581 13.3466 7.52581H15.5741C15.95 7.52581 16.2616 7.83748 16.2616 8.21331C16.2616 8.58915 15.95 8.90081 15.5741 8.90081H13.9425C13.805 10.4683 13.2183 11.9075 12.32 13.0808C13.2366 14.0983 14.3825 14.6483 15.5833 14.6483C15.9591 14.6483 16.2708 14.96 16.2708 15.3358C16.2708 15.7116 15.9591 16.0141 15.5833 16.0141Z" fill="white"/>
</svg>
