<svg width="21" height="21" viewBox="0 0 21 21" fill="none" xmlns="http://www.w3.org/2000/svg">
<path d="M21 10.5C21 16.299 16.299 21 10.5 21C4.70101 21 0 16.299 0 10.5C0 4.70101 4.70101 0 10.5 0C16.299 0 21 4.70101 21 10.5Z" fill="url(#paint0_radial_502_260)"/>
<path d="M6.71005 7.79194H6.69435C6.52802 7.80233 6.36135 7.77828 6.20475 7.72128C6.04816 7.66428 5.90502 7.57557 5.78429 7.46069C5.66357 7.34581 5.56786 7.20725 5.50316 7.05368C5.43847 6.9001 5.40617 6.73482 5.4083 6.56819C5.41043 6.40156 5.44694 6.23716 5.51555 6.08529C5.58415 5.93342 5.68337 5.79735 5.80699 5.6856C5.93062 5.57385 6.07598 5.48882 6.23398 5.43585C6.39198 5.38287 6.55922 5.36309 6.72522 5.37773C6.89154 5.36611 7.05848 5.38897 7.21555 5.44488C7.37263 5.50079 7.51646 5.58855 7.63804 5.70264C7.75961 5.81674 7.85631 5.95472 7.92207 6.10793C7.98783 6.26115 8.02123 6.42629 8.02019 6.59302C8.01914 6.75974 7.98366 6.92446 7.91599 7.07683C7.84831 7.22921 7.74988 7.36596 7.62688 7.47852C7.50388 7.59108 7.35896 7.67702 7.20119 7.73095C7.04342 7.78488 6.87622 7.80565 6.71005 7.79194ZM5.6343 9.41694H7.80097V15.9169H5.6343V9.41694ZM13.4885 9.41694C13.1234 9.41793 12.7632 9.50141 12.435 9.66114C12.1067 9.82088 11.8187 10.0527 11.5926 10.3394V9.41694H9.42597V15.9169H11.5926V12.9378C11.5926 12.6505 11.7068 12.3749 11.9099 12.1717C12.1131 11.9686 12.3887 11.8544 12.676 11.8544C12.9633 11.8544 13.2388 11.9686 13.442 12.1717C13.6452 12.3749 13.7593 12.6505 13.7593 12.9378V15.9169H15.926V11.8544C15.926 11.208 15.6692 10.588 15.212 10.1309C14.7549 9.67375 14.1349 9.41694 13.4885 9.41694Z" fill="white"/>
<defs>
<radialGradient id="paint0_radial_502_260" cx="0" cy="0" r="1" gradientUnits="userSpaceOnUse" gradientTransform="translate(7.5 6) rotate(70.1448) scale(19.1377)">
<stop stop-color="#49A8ED"/>
<stop offset="0.885422" stop-color="#0970D0"/>
</radialGradient>
</defs>
</svg>
