<svg width="18" height="20" viewBox="0 0 18 20" fill="none" xmlns="http://www.w3.org/2000/svg">
<path d="M16.901 6.74591C15.9385 2.51091 12.2444 0.604248 8.99935 0.604248C8.99935 0.604248 8.99935 0.604248 8.99019 0.604248C5.75435 0.604248 2.05102 2.50175 1.08852 6.73675C0.0160217 11.4667 2.91269 15.4726 5.53436 17.9934C6.50602 18.9284 7.75269 19.3959 8.99935 19.3959C10.246 19.3959 11.4927 18.9284 12.4552 17.9934C15.0769 15.4726 17.9735 11.4759 16.901 6.74591ZM8.99935 11.3384C7.40435 11.3384 6.11186 10.0459 6.11186 8.45092C6.11186 6.85592 7.40435 5.56342 8.99935 5.56342C10.5944 5.56342 11.8869 6.85592 11.8869 8.45092C11.8869 10.0459 10.5944 11.3384 8.99935 11.3384Z" fill="white"/>
</svg>
