<svg width="24" height="25" viewBox="0 0 24 25" fill="none" xmlns="http://www.w3.org/2000/svg">
<path d="M11 15.625C12.8897 15.625 15.573 17.2783 17.3003 18.502C17.9921 18.9921 19 18.5045 19 17.6566V5.26004C19 4.4122 17.9921 3.92456 17.3003 4.41468C15.573 5.6384 12.8897 7.29167 11 7.29167V15.625ZM5 15.625L7.76194 23.2971C7.90477 23.6938 8.28114 23.9583 8.70283 23.9583H10.5772C11.2698 23.9583 11.7527 23.2713 11.5181 22.6196L9 15.625M19 14.5833C19.394 14.5833 19.7841 14.5025 20.1481 14.3455C20.512 14.1884 20.8427 13.9582 21.1213 13.668C21.3999 13.3779 21.6209 13.0334 21.7716 12.6542C21.9224 12.2751 22 11.8687 22 11.4583C22 11.048 21.9224 10.6416 21.7716 10.2624C21.6209 9.88331 21.3999 9.53881 21.1213 9.24862C20.8427 8.95844 20.512 8.72826 20.1481 8.57121C19.7841 8.41416 19.394 8.33333 19 8.33333M2 11.4583C2 8.21771 3.791 7.29167 6 7.29167H11V15.625H6C3.791 15.625 2 14.699 2 11.4583Z" fill="white"/>
<path d="M19 8.33398V14.584" stroke="#35C1FF" stroke-linecap="round"/>
<path d="M9.5 18.2292C9.5 18.2292 10.1104 18.8257 11.5 17.7083C12.6722 16.7657 12.5 15.625 12.5 15.625" stroke="white" stroke-linecap="round"/>
</svg>
