<svg width="22" height="22" viewBox="0 0 22 22" fill="none" xmlns="http://www.w3.org/2000/svg">
<path d="M11.0007 14.209C13.0265 14.209 14.6673 12.5682 14.6673 10.5423V5.50065C14.6673 3.47482 13.0265 1.83398 11.0007 1.83398C8.97482 1.83398 7.33398 3.47482 7.33398 5.50065V10.5423C7.33398 12.5682 8.97482 14.209 11.0007 14.209Z" stroke="#35C1FF" stroke-width="1.2" stroke-linecap="round" stroke-linejoin="round"/>
<path d="M3.98828 8.8457V10.404C3.98828 14.2724 7.13245 17.4165 11.0008 17.4165C14.8691 17.4165 18.0133 14.2724 18.0133 10.404V8.8457" stroke="#35C1FF" stroke-width="1.2" stroke-linecap="round" stroke-linejoin="round"/>
<path d="M9.72656 5.89484C10.5516 5.59234 11.4499 5.59234 12.2749 5.89484" stroke="#35C1FF" stroke-width="1.2" stroke-linecap="round" stroke-linejoin="round"/>
<path d="M10.2676 7.83844C10.7534 7.7101 11.2576 7.7101 11.7434 7.83844" stroke="#35C1FF" stroke-width="1.2" stroke-linecap="round" stroke-linejoin="round"/>
<path d="M11 17.416V20.166" stroke="#35C1FF" stroke-width="1.2" stroke-linecap="round" stroke-linejoin="round"/>
</svg>
