<svg width="25" height="26" viewBox="0 0 25 26" fill="none" xmlns="http://www.w3.org/2000/svg">
<path d="M10.323 6.06622C9.52152 6.06622 8.87109 6.57456 8.87109 7.20064H9.17005C9.17005 6.70279 9.68693 6.30003 10.3231 6.30003C10.9616 6.30003 11.4777 6.70265 11.4777 7.20064H11.7769C11.7765 6.57461 11.1254 6.06622 10.323 6.06622Z" fill="white" stroke="white" stroke-width="0.2"/>
<path d="M14.5113 6.06622C13.7091 6.06622 13.0586 6.57456 13.0586 7.20064H13.3576C13.3576 6.70279 13.8749 6.30003 14.5114 6.30003C15.1487 6.30003 15.6661 6.70265 15.6661 7.20064H15.9638C15.9636 6.57461 15.3137 6.06622 14.5112 6.06622H14.5113Z" fill="white" stroke="white" stroke-width="0.2"/>
<path d="M18.9525 2.85693C18.0801 1.96283 17.0654 1.42547 16.0881 1.24412C15.0342 0.458288 13.7727 0 12.4159 0C11.2492 0 10.1554 0.342405 9.20137 0.935798C8.0084 0.920382 6.6795 1.48439 5.57688 2.61407C3.62043 4.61826 3.12487 7.60366 4.46914 9.28759C4.95031 9.89097 5.60332 10.2406 6.33189 10.3542C7.31604 13.0648 9.6675 14.9741 12.416 14.9741C15.0946 14.9741 17.395 13.1578 18.4214 10.5555C19.0592 10.4086 19.6291 10.0709 20.0611 9.53027C21.4053 7.84601 20.9092 4.8615 18.9527 2.85675L18.9525 2.85693ZM12.4158 14.468C9.41982 14.468 6.93099 12.0337 6.39522 8.81779C6.62132 8.70825 6.83286 8.48101 6.96432 8.16655C7.04358 7.97667 7.08041 7.78188 7.08442 7.59744H7.08874C7.08874 6.87293 7.20723 6.18139 7.41332 5.53776C8.21604 6.08547 9.76814 5.95888 11.3177 5.12988C12.9161 4.27385 14.0087 2.93942 14.0876 1.87121C16.2094 2.66592 17.742 4.9269 17.742 7.59761H17.7442C17.7486 7.78187 17.7852 7.97683 17.8647 8.16672C17.9966 8.48247 18.2088 8.7097 18.4354 8.81871C17.8996 12.034 15.4102 14.468 12.4156 14.468L12.4158 14.468Z" fill="white"/>
<path d="M14.0753 11.5768C13.2046 12.7315 11.6286 12.7315 10.7578 11.5768C10.8777 11.4609 10.9975 11.3452 11.1175 11.2295C11.7996 12.1341 13.034 12.1341 13.716 11.2295C13.8356 11.3452 13.9554 11.4609 14.0753 11.5768Z" fill="white"/>
<path d="M0.00110673 20.5818C0.0014438 20.5819 0.00171976 20.5821 0.00182038 20.5825L1.59411 25.7545C1.63903 25.9005 1.77388 26 1.92657 26C2.16063 26 2.3279 25.7735 2.25903 25.5498L1.12805 21.8762C0.930068 21.2331 1.41091 20.5819 2.08378 20.5819H2.75957C3.21834 20.5819 3.61827 20.8941 3.72965 21.3391L4.70659 25.2428C4.81797 25.6879 5.2179 26 5.67667 26H19.1561C19.6149 26 20.0148 25.6879 20.1262 25.2428L21.1032 21.3391C21.2145 20.8941 21.6145 20.5819 22.0732 20.5819H22.7495C23.4224 20.5819 23.9032 21.2331 23.7053 21.8762L22.5743 25.5498C22.5054 25.7735 22.6727 26 22.9067 26C23.0594 26 23.1943 25.9005 23.2392 25.7545L24.8315 20.5824C24.8316 20.5821 24.8318 20.5819 24.8321 20.5819C24.8326 20.5819 24.8329 20.5814 24.8327 20.581L24.8324 20.5804C24.8323 20.5802 24.8323 20.58 24.8323 20.5798L24.8327 20.5774C24.8329 20.5757 24.8317 20.574 24.83 20.5737C24.829 20.5735 24.8282 20.5729 24.8277 20.572L22.1746 15.571C22.0011 15.2441 21.6613 15.0397 21.2912 15.0397H16.6114C16.0893 15.0397 15.5939 15.4524 15.2242 15.8211C14.653 16.3906 13.6103 16.9447 12.4172 16.9447C11.2229 16.9447 10.1797 16.3903 9.60834 15.8206C9.23874 15.4521 8.74365 15.0397 8.22172 15.0397H3.54188C3.1718 15.0397 2.83197 15.2441 2.65852 15.571L0.00538721 20.5715C0.00491695 20.5724 0.00407158 20.573 0.00308681 20.5732C0.0013549 20.5736 0.000188658 20.5752 0.00042981 20.577L0.000748801 20.5793C0.000782771 20.5795 0.000751947 20.5798 0.00065937 20.58L0.000418166 20.5806C0.000203043 20.5811 0.000537377 20.5817 0.00110673 20.5818ZM16.3852 15.9345C16.8448 15.9345 17.2169 16.3556 17.2169 16.8761C17.2169 17.3966 16.8448 17.8181 16.3852 17.8181C15.9253 17.8181 15.5538 17.3966 15.5538 16.8761C15.5538 16.3558 15.9255 15.9345 16.3852 15.9345ZM14.5142 18.3745C14.9735 18.3745 15.3456 18.796 15.3456 19.3159C15.3456 19.8368 14.9735 20.2583 14.5142 20.2583C14.055 20.2583 13.6825 19.8368 13.6825 19.3159C13.6825 18.7962 14.0553 18.3745 14.5142 18.3745ZM12.4167 20.1079C12.8763 20.1079 13.2479 20.5301 13.2479 21.0499C13.2479 21.5704 12.8763 23.2764 12.4167 23.2764C11.9568 23.2764 11.585 21.57 11.585 21.0499C11.585 20.5302 11.9568 20.1079 12.4167 20.1079ZM10.3189 18.3745C10.7781 18.3745 11.1503 18.796 11.1503 19.3159C11.1503 19.8368 10.7781 20.2583 10.3189 20.2583C9.85932 20.2583 9.48752 19.8368 9.48752 19.3159C9.48736 18.7962 9.85933 18.3745 10.3189 18.3745ZM8.44766 15.9345C8.90756 15.9345 9.27969 16.3556 9.27969 16.8761C9.27969 17.3966 8.90755 17.8181 8.44766 17.8181C7.98875 17.8181 7.61674 17.3966 7.61674 16.8761C7.61674 16.3558 7.98871 15.9345 8.44766 15.9345Z" fill="white"/>
</svg>
