<svg width="26" height="26" viewBox="0 0 26 26" fill="none" xmlns="http://www.w3.org/2000/svg">
<path d="M22.6308 5.61146V17.8531C22.6308 19.9981 20.8866 21.7423 18.7416 21.7423C16.6075 21.7423 14.8525 19.9981 14.8525 17.8531C14.8525 15.719 16.6075 13.9748 18.7416 13.9748C19.6516 13.9748 20.4641 14.289 21.125 14.809V8.36312L11.1475 11.2015V19.944C11.1475 22.089 9.39247 23.8331 7.25831 23.8331C5.11331 23.8331 3.36914 22.089 3.36914 19.944C3.36914 17.8098 5.11331 16.0656 7.25831 16.0656C8.15747 16.0656 8.96997 16.3798 9.63081 16.889V7.31229C9.63081 5.71979 10.595 4.48479 12.1225 4.07312L18.3841 2.36146C19.6516 2.01479 20.7241 2.13396 21.4825 2.71896C22.2516 3.29312 22.6308 4.26812 22.6308 5.61146Z" fill="white"/>
</svg>
