<svg width="18" height="29" viewBox="0 0 18 29" fill="none" xmlns="http://www.w3.org/2000/svg">
<path d="M8.67391 10.9768C7.56732 10.9768 6.87924 10.3486 6.93917 10.5581C7.17847 11.3058 7.89637 11.7844 8.67391 11.7844C9.45145 11.7844 10.1694 11.276 10.4087 10.5581C10.4685 10.3488 9.69077 10.9768 8.67391 10.9768Z" fill="white"/>
<path d="M12.0226 7.20822C11.6936 6.93908 11.2749 6.81933 10.8561 6.84937C10.4374 6.8792 10.0485 7.08867 9.80919 7.4177C9.54006 7.77655 10.0187 8.25516 10.3775 7.95596C11.3645 7.0887 12.0226 7.86625 12.3215 8.28497C12.4112 8.40452 12.5907 8.34485 12.5608 8.19526C12.561 7.92592 12.4115 7.50715 12.0226 7.20822Z" fill="white"/>
<path d="M7.53877 7.41762C7.26963 7.08861 6.91057 6.87936 6.49183 6.84929C6.07311 6.81946 5.65437 6.90917 5.32537 7.20814C4.96652 7.53715 4.81694 7.92602 4.78711 8.19515C4.78711 8.34474 4.96653 8.40462 5.02641 8.28486C5.29555 7.86614 5.98362 7.08859 6.97041 7.95585C7.29942 8.25503 7.80811 7.8065 7.53877 7.41762Z" fill="white"/>
<path d="M8.67371 0.000106811C3.88811 0.000106811 0 3.91818 0 8.70372V12.4124C0.658005 13.7883 2.5722 16.0613 5.7725 17.9456C6.58011 18.4242 7.5371 18.9028 8.67371 19.3812C13.0406 17.6465 16.3006 14.5956 17.3474 12.4123V8.73352C17.3474 3.91812 13.4594 0 8.67371 0V0.000106811ZM13.8181 10.4983C13.2799 11.5452 12.4124 12.3826 11.3654 12.8312C9.6307 13.5789 7.65663 13.5789 5.95185 12.8312C4.90492 12.3827 4.03765 11.5452 3.52925 10.4983C2.72164 10.4983 2.09365 9.84028 2.09365 9.03267C2.09365 8.46434 2.39283 7.98574 2.87124 7.74668C2.99079 7.6868 3.05067 7.59709 3.08071 7.4475V7.41766C3.52926 4.69586 5.80251 2.48273 8.28499 2.36293H8.3747C8.28499 4.09767 6.66976 5.17446 6.7895 5.14439C9.21211 4.60613 9.75058 2.42259 9.93004 2.48246C12.0537 2.9909 13.8481 4.99479 14.237 7.38759C14.2669 7.50714 14.3267 7.62689 14.4465 7.68677C14.9251 7.92607 15.2541 8.43451 15.2541 9.00284C15.2837 9.8403 14.6257 10.4983 13.8181 10.4983Z" fill="white"/>
<path d="M9.78125 19.7702C11.8748 20.4881 14.4173 20.9665 17.3483 20.8469V13.9678C15.9426 15.882 13.3107 18.185 9.78125 19.7702Z" fill="white"/>
<path d="M0 13.9678V22.9406C0 25.9614 2.45267 28.414 5.4435 28.414H11.874C14.8948 28.414 17.3175 25.9613 17.3175 22.9406V21.6546C17.0484 21.6546 16.7792 21.6844 16.48 21.6844C8.37408 21.6844 2.36284 17.2579 0 13.9678Z" fill="white"/>
</svg>
