<svg width="26" height="26" viewBox="0 0 26 26" fill="none" xmlns="http://www.w3.org/2000/svg">
<path d="M4.875 8.125C4.65951 8.125 4.45285 8.2106 4.30048 8.36298C4.1481 8.51535 4.0625 8.72201 4.0625 8.9375C4.0625 9.15299 4.1481 9.35965 4.30048 9.51202C4.45285 9.6644 4.65951 9.75 4.875 9.75H19.5C19.7155 9.75 19.9222 9.6644 20.0745 9.51202C20.2269 9.35965 20.3125 9.15299 20.3125 8.9375C20.3125 8.72201 20.2269 8.51535 20.0745 8.36298C19.9222 8.2106 19.7155 8.125 19.5 8.125H4.875ZM4.46875 11.375C4.36101 11.375 4.25767 11.4178 4.18149 11.494C4.1053 11.5702 4.0625 11.6735 4.0625 11.7812C4.0625 11.889 4.1053 11.9923 4.18149 12.0685C4.25767 12.1447 4.36101 12.1875 4.46875 12.1875H19.9062C20.014 12.1875 20.1173 12.1447 20.1935 12.0685C20.2697 11.9923 20.3125 11.889 20.3125 11.7812C20.3125 11.6735 20.2697 11.5702 20.1935 11.494C20.1173 11.4178 20.014 11.375 19.9062 11.375H4.46875ZM15.4375 14.2188C15.4375 14.111 15.4803 14.0077 15.5565 13.9315C15.6327 13.8553 15.736 13.8125 15.8438 13.8125H19.9062C20.014 13.8125 20.1173 13.8553 20.1935 13.9315C20.2697 14.0077 20.3125 14.111 20.3125 14.2188C20.3125 14.3265 20.2697 14.4298 20.1935 14.506C20.1173 14.5822 20.014 14.625 19.9062 14.625H15.8438C15.736 14.625 15.6327 14.5822 15.5565 14.506C15.4803 14.4298 15.4375 14.3265 15.4375 14.2188ZM15.8438 16.25C15.736 16.25 15.6327 16.2928 15.5565 16.369C15.4803 16.4452 15.4375 16.5485 15.4375 16.6562C15.4375 16.764 15.4803 16.8673 15.5565 16.9435C15.6327 17.0197 15.736 17.0625 15.8438 17.0625H19.9062C20.014 17.0625 20.1173 17.0197 20.1935 16.9435C20.2697 16.8673 20.3125 16.764 20.3125 16.6562C20.3125 16.5485 20.2697 16.4452 20.1935 16.369C20.1173 16.2928 20.014 16.25 19.9062 16.25H15.8438ZM15.4375 19.0938C15.4375 18.986 15.4803 18.8827 15.5565 18.8065C15.6327 18.7303 15.736 18.6875 15.8438 18.6875H19.9062C20.014 18.6875 20.1173 18.7303 20.1935 18.8065C20.2697 18.8827 20.3125 18.986 20.3125 19.0938C20.3125 19.2015 20.2697 19.3048 20.1935 19.381C20.1173 19.4572 20.014 19.5 19.9062 19.5H15.8438C15.736 19.5 15.6327 19.4572 15.5565 19.381C15.4803 19.3048 15.4375 19.2015 15.4375 19.0938ZM15.8438 21.125C15.736 21.125 15.6327 21.1678 15.5565 21.244C15.4803 21.3202 15.4375 21.4235 15.4375 21.5312C15.4375 21.639 15.4803 21.7423 15.5565 21.8185C15.6327 21.8947 15.736 21.9375 15.8438 21.9375H19.9062C20.014 21.9375 20.1173 21.8947 20.1935 21.8185C20.2697 21.7423 20.3125 21.639 20.3125 21.5312C20.3125 21.4235 20.2697 21.3202 20.1935 21.244C20.1173 21.1678 20.014 21.125 19.9062 21.125H15.8438ZM4.0625 15.4375C4.0625 15.0065 4.2337 14.5932 4.53845 14.2885C4.8432 13.9837 5.25652 13.8125 5.6875 13.8125H12.1875C12.6185 13.8125 13.0318 13.9837 13.3365 14.2885C13.6413 14.5932 13.8125 15.0065 13.8125 15.4375V20.3125C13.8125 20.7435 13.6413 21.1568 13.3365 21.4615C13.0318 21.7663 12.6185 21.9375 12.1875 21.9375H5.6875C5.25652 21.9375 4.8432 21.7663 4.53845 21.4615C4.2337 21.1568 4.0625 20.7435 4.0625 20.3125V15.4375Z" fill="white"/>
<path d="M6.5 3.25C6.06902 3.25 5.6557 3.4212 5.35095 3.72595C5.0462 4.0307 4.875 4.44402 4.875 4.875H3.21912C1.82975 4.875 0.8125 6.02712 0.8125 7.3125V21.9375C0.8125 23.6714 2.17994 25.1875 3.99994 25.1875H23.5763C24.0049 25.1839 24.4147 25.011 24.7164 24.7067C25.0182 24.4023 25.1875 23.9911 25.1875 23.5625V4.875C25.1875 4.44402 25.0163 4.0307 24.7115 3.72595C24.4068 3.4212 23.9935 3.25 23.5625 3.25H6.5ZM21.1559 6.5C21.5296 6.5 21.8433 6.773 21.9196 7.13863C21.931 7.19469 21.9375 7.25238 21.9375 7.3125V21.9375C21.9375 22.3685 22.1087 22.7818 22.4135 23.0865C22.7182 23.3913 23.1315 23.5625 23.5625 23.5625H3.99994C3.13706 23.5625 2.4375 22.8353 2.4375 21.9375V7.3125C2.4375 6.864 2.78687 6.5 3.21912 6.5H21.1559Z" fill="white"/>
</svg>
