<svg width="21" height="24" viewBox="0 0 21 24" fill="none" xmlns="http://www.w3.org/2000/svg">
<path d="M12.5662 2.14202L11.7295 2.9383L11.8993 3.99732C11.9156 4.04171 11.9241 4.09024 11.9241 4.13878C11.9241 4.36109 11.7422 4.54297 11.5199 4.54297H11.5114C11.4468 4.54297 11.378 4.52673 11.3178 4.49443L10.3073 3.94483L9.27628 4.47027C9.14294 4.53902 8.97766 4.52693 8.85189 4.43382C8.73063 4.3409 8.67 4.18734 8.69833 4.03776L8.90439 2.90206L8.09204 2.08971C7.98288 1.98054 7.94246 1.81886 7.991 1.67343C8.04351 1.528 8.16892 1.4228 8.32247 1.40259L9.4663 1.24903L9.98777 0.222303C10.0565 0.0848056 10.198 0 10.3476 0H10.3557C10.5096 0.00396968 10.6471 0.0929262 10.7159 0.230424L11.2126 1.26921L12.3481 1.45092C12.5017 1.47509 12.6265 1.58426 12.6715 1.72988C12.7198 1.87531 12.6754 2.03699 12.5663 2.14201L12.5662 2.14202Z" fill="white"/>
<path d="M4.5963 10.2541L3.75998 11.0504L3.92977 12.1094C3.94601 12.1538 3.95395 12.2024 3.95395 12.2509C3.95395 12.4732 3.77207 12.6551 3.54977 12.6551H3.54165C3.47705 12.6551 3.4083 12.6388 3.34767 12.6065L2.3372 12.0569L1.30655 12.5824C1.16905 12.6511 1.00737 12.6391 0.882148 12.5459C0.760891 12.453 0.700264 12.2995 0.728594 12.1499L0.934656 11.0142L0.11815 10.2018C0.00862152 10.0927 -0.0272843 9.93098 0.0210705 9.78555C0.0699703 9.63976 0.198807 9.53474 0.352361 9.51453L1.49619 9.36097L2.01766 8.33424C2.08641 8.19674 2.22824 8.11194 2.37782 8.11194H2.38179C2.53535 8.11194 2.67645 8.2009 2.7416 8.34236L3.24288 9.38115L4.37858 9.56303C4.5325 9.58721 4.65754 9.69241 4.70229 9.842C4.75011 9.98743 4.70554 10.1491 4.59637 10.2541L4.5963 10.2541Z" fill="white"/>
<path d="M20.5379 10.2541L19.7012 11.0504L19.871 12.1094C19.8872 12.1538 19.8957 12.2024 19.8957 12.2509C19.8957 12.4732 19.7138 12.6551 19.4915 12.6551H19.483C19.4188 12.6551 19.354 12.6389 19.293 12.6066L18.2786 12.0569L17.2518 12.5824C17.1143 12.6511 16.9487 12.6391 16.8229 12.5459C16.7017 12.453 16.6414 12.2995 16.6694 12.1499L16.88 11.0142L16.0631 10.2018C15.9539 10.0927 15.9135 9.93099 15.9665 9.78555C16.0147 9.64012 16.1403 9.53492 16.2939 9.51471L17.4377 9.36116L17.9592 8.33443C18.0279 8.19693 18.1694 8.11212 18.319 8.11212H18.3274C18.481 8.11212 18.6185 8.20108 18.6872 8.34255L19.1844 9.38133L20.3239 9.56322C20.4734 9.58343 20.599 9.69259 20.6472 9.84218C20.6914 9.98743 20.651 10.1491 20.5379 10.2541Z" fill="white"/>
<path d="M16.7461 6.5273C16.734 6.63647 16.6815 6.73336 16.5965 6.79814L14.5391 8.427C14.4664 8.48366 14.3775 8.51181 14.2885 8.51181C14.1712 8.51181 14.05 8.4593 13.9733 8.35825L13.1245 7.2911C13.0599 7.2063 13.0274 7.1011 13.0397 6.99193C13.0518 6.88691 13.1084 6.78983 13.1932 6.72109L15.2506 5.0962C15.4244 4.95871 15.6795 4.98704 15.8165 5.1608L16.6613 6.23192C16.7299 6.31727 16.7582 6.42229 16.7461 6.5273Z" fill="white"/>
<path d="M7.51912 6.99247C7.53121 7.10164 7.49891 7.20665 7.43432 7.29164L6.58552 8.35879C6.50865 8.45984 6.39155 8.51234 6.27029 8.51234C6.18134 8.51234 6.09238 8.48402 6.01966 8.42754L3.96227 6.79868C3.78815 6.66119 3.76018 6.40658 3.89768 6.23282L4.7425 5.1617C4.8071 5.08086 4.90814 5.0242 5.01334 5.01211C5.12287 5.00002 5.22752 5.02835 5.31252 5.09692L7.36574 6.7218C7.45037 6.79037 7.50686 6.88745 7.51912 6.99247Z" fill="white"/>
<path d="M12.4663 10.4241L10.9991 13.4434C10.9506 13.5405 10.8698 13.6132 10.7687 13.6495C10.7243 13.6616 10.6798 13.6697 10.6354 13.6697C10.5748 13.6697 10.5141 13.6576 10.4575 13.6293L9.32574 13.0797C9.12761 12.9826 9.0428 12.7401 9.13988 12.538L10.6071 9.51867C10.7081 9.32054 10.951 9.23574 11.1488 9.33282L12.2809 9.88242C12.3774 9.93096 12.4507 10.0158 12.4869 10.1168C12.5234 10.218 12.5149 10.327 12.4663 10.4241Z" fill="white"/>
<path d="M2.92014 23.9998C2.79203 23.9998 2.6659 23.9391 2.58741 23.8256C2.46056 23.6421 2.50621 23.3904 2.68972 23.263C6.54198 20.5957 5.98383 12.1721 5.97824 12.0871C5.962 11.8644 6.12945 11.6712 6.35212 11.6549C6.5737 11.6383 6.76803 11.8061 6.78427 12.0288C6.81062 12.3938 7.38173 20.9976 3.15018 23.9272C3.07981 23.9761 2.99934 23.9995 2.92012 23.9995L2.92014 23.9998Z" fill="white"/>
<path d="M17.7432 23.9998C17.664 23.9998 17.5835 23.9763 17.5137 23.9278C13.2822 20.9981 13.8529 12.3939 13.8796 12.0294C13.8958 11.8067 14.0931 11.6389 14.3117 11.6555C14.5344 11.6718 14.7019 11.8648 14.6856 12.0877C14.6795 12.1725 14.1214 20.5964 17.9741 23.2636C18.1577 23.3904 18.2033 23.6427 18.0765 23.8262C17.9974 23.939 17.8713 24 17.7432 24L17.7432 23.9998Z" fill="white"/>
<path d="M6.74765 23.9822C6.64786 23.9822 6.54754 23.9454 6.46959 23.8714C6.30792 23.7179 6.30106 23.462 6.45461 23.3C8.88136 20.7428 8.44812 16.0786 8.44327 16.032C8.42107 15.81 8.58311 15.6121 8.80541 15.5897C9.03096 15.5699 9.22529 15.7292 9.24803 15.9515C9.2686 16.1572 9.72585 21.0281 7.04158 23.857C6.96092 23.9403 6.85428 23.9824 6.74764 23.9824L6.74765 23.9822Z" fill="white"/>
<path d="M13.9166 23.9822C13.8094 23.9822 13.7031 23.9402 13.6232 23.8561C10.939 21.0271 11.3962 16.1567 11.4167 15.9506C11.4393 15.7287 11.6345 15.569 11.8594 15.5889C12.0817 15.611 12.2433 15.8092 12.2215 16.0311C12.2166 16.078 11.7834 20.7419 14.2102 23.2991C14.3637 23.4611 14.3569 23.717 14.1952 23.8706C14.1167 23.9453 14.0166 23.9821 13.9166 23.9821L13.9166 23.9822Z" fill="white"/>
<path d="M8.37487 9.36815C8.28068 9.36815 8.18614 9.33549 8.10981 9.26909C7.94128 9.12275 7.92341 8.86725 8.06975 8.6987L9.46782 7.09045C9.61452 6.92192 9.86966 6.9046 10.0382 7.05039C10.2067 7.19673 10.2246 7.45223 10.0783 7.62078L8.6802 9.22904C8.5999 9.32124 8.48801 9.36815 8.37487 9.36815Z" fill="white"/>
<path d="M11.8709 7.69043C11.7582 7.69043 11.6457 7.64352 11.5658 7.55131L10.1674 5.94306C10.0211 5.77453 10.0389 5.51938 10.2075 5.37267C10.3756 5.22633 10.6306 5.24365 10.7779 5.41237L12.1763 7.02062C12.3226 7.18915 12.3047 7.4443 12.1362 7.59101C12.0593 7.65759 11.9651 7.69043 11.8709 7.69043Z" fill="white"/>
<path d="M7.47793 11.6543C7.32834 11.6543 7.18417 11.5711 7.11452 11.4271L6.17966 9.51207C6.08186 9.3116 6.16505 9.06945 6.36552 8.97166C6.56599 8.8726 6.8085 8.95704 6.90593 9.15751L7.84078 11.0725C7.93858 11.273 7.8554 11.5152 7.65493 11.6129C7.59791 11.6413 7.53729 11.6543 7.47793 11.6543Z" fill="white"/>
<path d="M13.2554 11.6543C13.1964 11.6543 13.1358 11.6413 13.0784 11.6135C12.8779 11.5157 12.7948 11.2735 12.8926 11.0731L13.827 9.15805C13.9248 8.95794 14.1657 8.87386 14.3674 8.9722C14.5679 9.07 14.6511 9.31215 14.5533 9.51261L13.6188 11.4276C13.5492 11.5709 13.4054 11.6543 13.2554 11.6543Z" fill="white"/>
</svg>
