<svg width="22" height="22" viewBox="0 0 22 22" fill="none" xmlns="http://www.w3.org/2000/svg">
<path d="M21.1676 10.5883L18.931 8.04L19.2426 4.66667L15.9335 3.915L14.201 1L11.0843 2.33833L7.96764 1L6.23514 3.915L2.92598 4.6575L3.23764 8.03083L1.00098 10.5883L3.23764 13.1367L2.92598 16.5192L6.23514 17.2708L7.96764 20.1858L11.0843 18.8383L14.201 20.1767L15.9335 17.2617L19.2426 16.51L18.931 13.1367L21.1676 10.5883Z" fill="#FE3D3D"/>
<path d="M11 11L8 8M11 11L14 14M11 11L14 8M11 11L8 14" stroke="white" stroke-width="1.5" stroke-linecap="round" stroke-linejoin="round"/>
</svg>
