<svg width="26" height="26" viewBox="0 0 26 26" fill="none" xmlns="http://www.w3.org/2000/svg">
<path d="M21.4394 4.5707C18.2327 1.37487 13.0327 1.37487 9.8477 4.5707C7.6052 6.79154 6.93353 9.98737 7.8002 12.804L2.70853 17.8957C2.35103 18.264 2.10187 18.9899 2.1777 19.5099L2.5027 21.8715C2.62187 22.6515 3.3477 23.3882 4.1277 23.4965L6.48937 23.8215C7.00937 23.8974 7.7352 23.659 8.10353 23.2799L8.99187 22.3915C9.20853 22.1857 9.20853 21.839 8.99187 21.6224L6.8902 19.5207C6.57603 19.2065 6.57603 18.6865 6.8902 18.3724C7.20437 18.0582 7.72437 18.0582 8.03853 18.3724L10.151 20.4849C10.3569 20.6907 10.7035 20.6907 10.9094 20.4849L13.206 18.199C16.0119 19.0765 19.2077 18.394 21.4394 16.1732C24.6352 12.9774 24.6352 7.76654 21.4394 4.5707ZM15.7085 12.999C14.2135 12.999 13.0002 11.7857 13.0002 10.2907C13.0002 8.7957 14.2135 7.58237 15.7085 7.58237C17.2035 7.58237 18.4169 8.7957 18.4169 10.2907C18.4169 11.7857 17.2035 12.999 15.7085 12.999Z" fill="white"/>
</svg>
