<svg width="22" height="26" viewBox="0 0 22 26" fill="none" xmlns="http://www.w3.org/2000/svg">
<path d="M20.0316 9.82302L20.0308 8.59115C19.6245 2.68663 15.0318 9.23766e-05 10.9328 9.23766e-05C10.9211 -0.000115471 10.9095 9.23766e-05 10.8979 9.23766e-05C7.83563 9.23766e-05 5.22049 0.927931 3.5325 2.61369C2.02921 4.1149 1.26698 6.13853 1.26698 8.62833V9.82302C0.550234 9.94874 0 10.5582 0 11.2912V14.8391C0 15.6221 0.63732 16.2642 1.43285 16.3183V17.2453C1.43285 17.5443 1.67537 17.7871 1.97463 17.7871H9.3751C9.67413 17.7871 9.91687 17.5446 9.91687 17.2453C9.91687 16.9463 9.67436 16.7035 9.3751 16.7035H2.51619V16.2281C3.09515 16.0142 3.50994 15.4727 3.50994 14.8389V11.291C3.50994 10.5938 3.01453 10.0101 2.35037 9.84613V8.62815C2.35037 6.43641 3.00578 4.67064 4.29792 3.38036C5.78169 1.89867 8.12472 1.08324 10.8993 1.08324C10.9099 1.08304 10.9203 1.08324 10.9313 1.08324C14.5445 1.08324 18.592 3.45431 18.9489 8.62788V9.84645C18.2823 10.011 17.7877 10.5942 17.7877 11.2907V14.8386C17.7877 15.6565 18.4756 16.3281 19.3259 16.3281H19.7592C20.6095 16.3281 21.2973 15.6565 21.2973 14.8386V11.2907C21.2978 10.558 20.7514 9.94849 20.0318 9.82272L20.0316 9.82302Z" fill="white"/>
<path d="M15.7132 18.9434C15.3618 19.3918 14.9847 19.8033 14.5848 20.1628C13.387 21.244 12.0253 21.8163 10.6485 21.8163C9.27181 21.8163 7.91002 21.244 6.71061 20.1616C6.3112 19.8027 5.93465 19.3916 5.58343 18.9436C4.08972 19.6653 2.96069 21.0651 2.63756 22.771L2.14817 25.3582C2.11804 25.5169 2.16043 25.6803 2.2633 25.8045C2.36616 25.9286 2.51911 26.0005 2.68037 26.0005H18.6166C18.7778 26.0005 18.9308 25.9286 19.0336 25.8045C19.1365 25.6803 19.1789 25.5167 19.1488 25.3582L18.6594 22.771C18.3362 21.0649 17.2072 19.6651 15.7133 18.9434H15.7132Z" fill="white"/>
<path d="M9.37564 18.8693H6.94887C7.10805 19.0404 7.26994 19.2052 7.43722 19.3556C8.43927 20.2602 9.54958 20.7315 10.6493 20.7315C11.7488 20.7315 12.8593 20.2602 13.8614 19.3556C15.8439 17.5734 17.2846 14.2695 17.2846 11.4907C17.2846 7.57997 14.3109 4.40039 10.6491 4.40039C6.98737 4.40039 4.01367 7.57986 4.01367 11.4907C4.01367 12.8217 4.34699 14.2722 4.90932 15.6192H9.3753C10.2714 15.6192 11.0004 16.3482 11.0004 17.2443C11.0002 18.1405 10.2714 18.8693 9.3753 18.8693L9.37564 18.8693Z" fill="white"/>
</svg>
