<svg width="24" height="24" viewBox="0 0 24 24" fill="none" xmlns="http://www.w3.org/2000/svg">
<path d="M17.6005 5.31003L11.9505 2.27003C11.3505 1.95003 10.6405 1.95003 10.0405 2.27003L4.40047 5.31003C3.99047 5.54003 3.73047 5.98003 3.73047 6.46003C3.73047 6.95003 3.98047 7.39003 4.40047 7.61003L10.0505 10.65C10.3505 10.81 10.6805 10.89 11.0005 10.89C11.3205 10.89 11.6605 10.81 11.9505 10.65L17.6005 7.61003C18.0105 7.39003 18.2705 6.95003 18.2705 6.46003C18.2705 5.98003 18.0105 5.54003 17.6005 5.31003Z" fill="white"/>
<path d="M9.12 11.71L3.87 9.09003C3.46 8.88003 3 8.91003 2.61 9.14003C2.23 9.38003 2 9.79003 2 10.24V15.2C2 16.06 2.48 16.83 3.25 17.22L8.5 19.84C8.68 19.93 8.88 19.98 9.08 19.98C9.31 19.98 9.55 19.91 9.76 19.79C10.14 19.55 10.37 19.14 10.37 18.69V13.73C10.36 12.87 9.88 12.1 9.12 11.71Z" fill="white"/>
<path d="M20.0006 10.24V12.7C19.5206 12.56 19.0106 12.5 18.5006 12.5C17.1406 12.5 15.8106 12.97 14.7606 13.81C13.3206 14.94 12.5006 16.65 12.5006 18.5C12.5006 18.99 12.5606 19.48 12.6906 19.95C12.5406 19.93 12.3906 19.87 12.2506 19.78C11.8706 19.55 11.6406 19.14 11.6406 18.69V13.73C11.6406 12.87 12.1206 12.1 12.8806 11.71L18.1306 9.09003C18.5406 8.88003 19.0006 8.91003 19.3906 9.14003C19.7706 9.38003 20.0006 9.79003 20.0006 10.24Z" fill="white"/>
<path d="M22 15.7C22 15.69 21.99 15.68 21.98 15.67C21.94 15.61 21.89 15.55 21.84 15.5C21.83 15.49 21.82 15.47 21.81 15.46C21 14.56 19.81 14 18.5 14C17.24 14 16.09 14.52 15.27 15.36C14.48 16.17 14 17.28 14 18.5C14 19.34 14.24 20.14 14.65 20.82C14.87 21.19 15.15 21.53 15.47 21.81C15.49 21.82 15.5 21.83 15.51 21.84C15.56 21.89 15.61 21.93 15.67 21.98C15.67 21.98 15.67 21.98 15.68 21.98C15.69 21.99 15.7 22 15.71 22C16.46 22.63 17.43 23 18.5 23C20.14 23 21.57 22.12 22.35 20.82C22.58 20.43 22.76 20 22.87 19.55C22.96 19.21 23 18.86 23 18.5C23 17.44 22.63 16.46 22 15.7ZM20.18 19.23H19.25V20.2C19.25 20.61 18.91 20.95 18.5 20.95C18.09 20.95 17.75 20.61 17.75 20.2V19.23H16.82C16.41 19.23 16.07 18.89 16.07 18.48C16.07 18.07 16.41 17.73 16.82 17.73H17.75V16.84C17.75 16.43 18.09 16.09 18.5 16.09C18.91 16.09 19.25 16.43 19.25 16.84V17.73H20.18C20.59 17.73 20.93 18.07 20.93 18.48C20.93 18.89 20.6 19.23 20.18 19.23Z" fill="white"/>
</svg>
