<svg width="26" height="26" viewBox="0 0 26 26" fill="none" xmlns="http://www.w3.org/2000/svg">
<path d="M21.3735 17.4417C21.3735 17.4092 21.3952 17.3767 21.3952 17.3334V7.04173C21.3952 5.39507 20.0627 4.06257 18.416 4.06257H14.1585L15.686 2.79507C16.0327 2.50257 16.076 1.9934 15.7943 1.64673C15.5018 1.30007 14.9927 1.25673 14.646 1.5384L11.396 4.24673C11.2118 4.3984 11.1035 4.6259 11.1035 4.87507C11.1035 5.12423 11.2118 5.3409 11.396 5.5034L14.646 8.21173C14.7977 8.34173 14.9818 8.3959 15.166 8.3959C15.3935 8.3959 15.6318 8.2984 15.7943 8.1034C16.0868 7.75673 16.0327 7.24757 15.686 6.95507L14.1585 5.68757H18.416C19.1635 5.68757 19.7702 6.29423 19.7702 7.04173V17.3334C19.7702 17.3767 19.7919 17.4092 19.7919 17.4417C18.3835 17.7992 17.3327 19.0667 17.3327 20.5834C17.3327 22.3817 18.7843 23.8334 20.5827 23.8334C22.381 23.8334 23.8327 22.3817 23.8327 20.5834C23.8327 19.0667 22.7818 17.7992 21.3735 17.4417Z" fill="white"/>
<path d="M14.6027 20.496L11.3527 17.7877C11.006 17.4952 10.4968 17.5493 10.2043 17.896C9.91185 18.2427 9.96602 18.7519 10.3127 19.0443L11.8402 20.3118H7.58268C6.83518 20.3118 6.22852 19.7052 6.22852 18.9577V8.66602C6.22852 8.62268 6.20685 8.59018 6.20685 8.55768C7.61518 8.20018 8.66602 6.93268 8.66602 5.41602C8.66602 3.61768 7.21435 2.16602 5.41602 2.16602C3.61768 2.16602 2.16602 3.61768 2.16602 5.41602C2.16602 6.93268 3.21685 8.20018 4.62518 8.55768C4.62518 8.59018 4.60352 8.62268 4.60352 8.66602V18.9577C4.60352 20.6043 5.93602 21.9368 7.58268 21.9368H11.8402L10.3127 23.2043C9.96602 23.4968 9.92268 24.006 10.2043 24.3527C10.3668 24.5477 10.5943 24.6452 10.8327 24.6452C11.0168 24.6452 11.201 24.5802 11.3527 24.461L14.6027 21.7527C14.7868 21.601 14.8952 21.3735 14.8952 21.1243C14.8952 20.8752 14.7868 20.6585 14.6027 20.496Z" fill="white"/>
</svg>
