<svg width="26" height="24" viewBox="0 0 26 24" fill="none" xmlns="http://www.w3.org/2000/svg">
<path fill-rule="evenodd" clip-rule="evenodd" d="M23.2663 5.71453C24.6269 6.39484 25.5793 7.75544 25.5793 9.38816C25.5793 11.0209 24.6269 12.3815 23.2663 13.0618C23.4024 11.8373 23.4024 10.6127 23.4024 9.38816C23.4024 8.29968 23.4024 6.93908 23.2663 5.71453ZM9.93241 6.66696L13.7421 5.30635H13.8782C14.1503 5.30635 14.4224 5.57847 14.4224 5.8506C14.4224 6.12272 14.2863 6.25878 14.0142 6.39484L10.0685 7.75544H4.62605C4.35393 7.75544 4.08181 7.48332 4.08181 7.2112C4.08181 6.93908 4.35393 6.66696 4.62605 6.66696H9.93241ZM16.3272 4.48999L17.1436 4.21787C17.4157 4.08181 17.6878 4.21787 17.8239 4.48999C17.96 4.76211 17.8239 5.03423 17.5518 5.17029L16.7354 5.44241C16.4633 5.57847 16.1912 5.44241 16.0551 5.17029C15.9191 4.89817 16.0551 4.62605 16.3272 4.48999ZM21.0894 0.952422C20.9533 0.408181 20.5451 0 20.0009 0C19.3206 0 18.7763 0.544241 18.7763 1.22454C18.7763 1.3606 18.7763 1.49666 18.9124 1.63272C18.9124 1.76878 19.0485 1.90484 19.0485 2.17697L9.66029 5.30635H4.21787C1.90485 5.30635 0 7.2112 0 9.52423C0 11.8373 1.90485 13.7421 4.21787 13.7421H4.35393V16.7354L7.2112 23.6745C7.34726 23.9466 7.61938 24.0827 7.8915 23.9466L11.7012 22.3139C11.9733 22.1778 12.1094 21.9057 11.9733 21.6336L11.5651 20.6812C11.4291 20.4091 11.1569 20.273 10.8848 20.4091L8.97998 15.783V13.7421H9.52423L18.7763 17.0075V17.4157C18.7763 17.5518 18.6403 17.6878 18.6403 17.8239C18.6403 18.5042 19.1845 19.0485 19.8648 19.0485C20.4091 19.0485 20.9533 18.6403 20.9533 18.096C21.6336 15.3748 22.0418 12.5176 22.0418 9.66028C22.0418 6.5309 21.7697 3.67363 21.0894 0.952422Z" fill="white"/>
</svg>
