<svg width="25" height="26" viewBox="0 0 25 26" fill="none" xmlns="http://www.w3.org/2000/svg">
<path d="M23.6464 13.0003C23.6464 11.8933 23.4627 10.8291 23.1288 9.83316C24.1449 8.78942 24.773 7.3662 24.773 5.79454C24.773 2.59442 22.1786 0 18.9784 0C16.7859 0 14.8782 1.21914 13.8935 3.01562C13.8145 3.01384 13.7358 3.0093 13.6556 3.0093C10.3002 3.0093 7.32751 4.67417 5.51485 7.21958C2.44587 7.36636 0 9.89401 0 13.0005C0 16.1064 2.44582 18.6342 5.51485 18.7798C7.32751 21.3252 10.3002 22.9903 13.6556 22.9903C13.7358 22.9903 13.8139 22.9862 13.8933 22.9844C14.8772 24.781 16.7853 26 18.9782 26C22.1782 26 24.7728 23.4066 24.7728 20.2065C24.7728 18.6347 24.1449 17.2114 23.1286 16.1673C23.4623 15.1719 23.6462 14.1073 23.6462 13.0003L23.6464 13.0003ZM7.77304 18.4398C9.99663 17.6304 11.588 15.504 11.588 13.0003C11.588 10.4968 9.99663 8.36999 7.77304 7.56082C9.15241 6.06982 11.086 5.1065 13.2454 4.99624C13.2093 5.25801 13.1844 5.52294 13.1844 5.79499C13.1844 8.99456 15.7784 11.5885 18.9779 11.5885C19.8547 11.5885 20.6829 11.3882 21.4283 11.0393C21.5871 11.6684 21.6808 12.3231 21.6808 13.0005C21.6808 13.6781 21.5875 14.3329 21.4279 14.9617C20.6829 14.6132 19.8548 14.4125 18.9779 14.4125C15.7785 14.4125 13.1844 17.0069 13.1844 20.207C13.1844 20.4783 13.2095 20.743 13.2454 21.0046C11.0859 20.8946 9.15227 19.9309 7.77305 18.4401L7.77304 18.4398Z" fill="white"/>
</svg>
