<svg width="26" height="26" viewBox="0 0 26 26" fill="none" xmlns="http://www.w3.org/2000/svg">
<path d="M8.28815 23.2923C7.25898 23.2923 6.32912 23.2111 5.49857 23.0486C4.66801 22.8861 4.08121 22.6243 3.73815 22.2631C3.41315 21.9201 3.16037 21.3243 2.97982 20.4756C2.79926 19.627 2.70898 18.6701 2.70898 17.6048C2.70898 15.5284 3.07443 13.5376 3.80532 11.6324C4.53621 9.72718 5.54298 8.12493 6.82565 6.82565C8.1076 5.54371 9.71021 4.53729 11.6335 3.8064C13.5568 3.07551 15.5833 2.70971 17.7132 2.70898C18.7423 2.70898 19.6722 2.79023 20.5027 2.95273C21.3333 3.11523 21.9201 3.37704 22.2631 3.73815C22.5881 4.08121 22.8409 4.67704 23.0215 5.52565C23.202 6.37426 23.2923 7.33121 23.2923 8.39648C23.2923 10.4729 22.9269 12.4637 22.196 14.3689C21.4651 16.2741 20.4583 17.8764 19.1757 19.1757C17.8937 20.4576 16.2911 21.4644 14.3678 22.196C12.4445 22.9276 10.418 23.293 8.28815 23.2923ZM4.92982 17.1715C5.52565 15.8715 6.24787 14.6033 7.09648 13.3668C7.9451 12.1304 8.88398 10.9791 9.91315 9.91315C10.9423 8.88398 12.0755 7.9451 13.3127 7.09648C14.5498 6.24787 15.818 5.52565 17.1173 4.92982C15.4743 4.98398 13.8626 5.32271 12.2824 5.94598C10.7022 6.56926 9.40687 7.3861 8.39648 8.39648C7.33121 9.42565 6.49596 10.7166 5.89073 12.2694C5.28551 13.8222 4.96521 15.4562 4.92982 17.1715ZM8.88398 21.0715C10.527 21.0173 12.1387 20.679 13.7189 20.0564C15.2991 19.4338 16.5944 18.6166 17.6048 17.6048C18.6701 16.5757 19.5053 15.2847 20.1106 13.7319C20.7158 12.1791 21.0361 10.5451 21.0715 8.82982C20.4757 10.1298 19.7534 11.3984 18.9048 12.6356C18.0562 13.8727 17.1173 15.0236 16.0882 16.0882C15.059 17.1173 13.9262 18.0562 12.6897 18.9048C11.4533 19.7534 10.1847 20.4757 8.88398 21.0715Z" fill="white"/>
</svg>
