<svg width="26" height="26" viewBox="0 0 26 26" fill="none" xmlns="http://www.w3.org/2000/svg">
<path d="M17.3327 8.66602H8.66602V17.3327H17.3327V8.66602Z" fill="white"/>
<path d="M2.16602 20.584C2.16602 22.3715 3.62852 23.834 5.41602 23.834C7.20352 23.834 8.66602 22.3715 8.66602 20.584V17.334H5.41602C3.62852 17.334 2.16602 18.7965 2.16602 20.584Z" fill="white"/>
<path d="M5.41602 2.16602C3.62852 2.16602 2.16602 3.62852 2.16602 5.41602C2.16602 7.20352 3.62852 8.66602 5.41602 8.66602H8.66602V5.41602C8.66602 3.62852 7.20352 2.16602 5.41602 2.16602Z" fill="white"/>
<path d="M23.834 5.41602C23.834 3.62852 22.3715 2.16602 20.584 2.16602C18.7965 2.16602 17.334 3.62852 17.334 5.41602V8.66602H20.584C22.3715 8.66602 23.834 7.20352 23.834 5.41602Z" fill="white"/>
<path d="M20.584 17.334H17.334V20.584C17.334 22.3715 18.7965 23.834 20.584 23.834C22.3715 23.834 23.834 22.3715 23.834 20.584C23.834 18.7965 22.3715 17.334 20.584 17.334Z" fill="white"/>
</svg>
