<svg width="26" height="26" viewBox="0 0 26 26" fill="none" xmlns="http://www.w3.org/2000/svg">
<path d="M9.67352 2.16602H5.43768C3.24935 2.16602 2.16602 3.24935 2.16602 5.43768V9.68435C2.16602 11.916 3.24935 12.9993 5.43768 12.9452H9.68435C11.916 12.9993 12.9993 11.916 12.9452 9.67352V5.43768C12.9993 3.24935 11.916 2.16602 9.67352 2.16602ZM9.76018 10.5727C9.02352 10.5727 8.30852 10.291 7.71268 9.79268C7.04102 10.2802 6.22852 10.5727 5.35102 10.5727C4.90685 10.5727 4.53852 10.2043 4.53852 9.76018C4.53852 9.31602 4.90685 8.94768 5.35102 8.94768C6.45602 8.94768 7.37685 8.18935 7.71268 7.14935H5.35102C4.90685 7.14935 4.53852 6.78102 4.53852 6.33685C4.53852 5.89268 4.90685 5.52435 5.35102 5.52435H6.74852C6.79185 5.11268 7.12768 4.78768 7.55018 4.78768C7.97268 4.78768 8.30852 5.11268 8.35185 5.52435H8.63351C8.64435 5.52435 8.65518 5.52435 8.65518 5.52435H8.67685H9.74935C10.1935 5.52435 10.5618 5.89268 10.5618 6.33685C10.5618 6.78102 10.2043 7.14935 9.74935 7.14935H9.39185C9.29435 7.66935 9.08852 8.15685 8.81768 8.60102C9.11018 8.81768 9.42435 8.94768 9.76018 8.94768C10.2043 8.94768 10.5727 9.31602 10.5727 9.76018C10.5727 10.2043 10.2043 10.5727 9.76018 10.5727Z" fill="white"/>
<path d="M9.74935 24.6458C5.12352 24.6458 1.35352 20.8758 1.35352 16.25C1.35352 15.8058 1.72185 15.4375 2.16602 15.4375C2.61018 15.4375 2.97852 15.8058 2.97852 16.25C2.97852 19.4567 5.21018 22.1433 8.21102 22.8475L7.91852 22.36C7.69102 21.97 7.81018 21.4717 8.20018 21.2442C8.57935 21.0167 9.08852 21.1358 9.31602 21.5258L10.4535 23.4217C10.6052 23.6708 10.6052 23.985 10.4643 24.2342C10.3127 24.4833 10.0418 24.6458 9.74935 24.6458Z" fill="white"/>
<path d="M23.8343 10.5618C23.3901 10.5618 23.0218 10.1935 23.0218 9.74935C23.0218 6.54268 20.7901 3.85602 17.7893 3.15185L18.0818 3.63935C18.3093 4.02935 18.1901 4.52768 17.8001 4.75518C17.4209 4.98268 16.9118 4.86352 16.6843 4.47352L15.5468 2.57768C15.3951 2.32852 15.3951 2.01435 15.5359 1.76518C15.6876 1.51602 15.9584 1.35352 16.2509 1.35352C20.8768 1.35352 24.6468 5.12352 24.6468 9.74935C24.6468 10.1935 24.2784 10.5618 23.8343 10.5618Z" fill="white"/>
<path d="M18.3295 12.8379C15.2962 12.8379 12.8262 15.2971 12.8262 18.3412C12.8262 21.3746 15.2853 23.8446 18.3295 23.8446C21.3628 23.8446 23.8328 21.3854 23.8328 18.3412C23.8328 15.2971 21.3737 12.8379 18.3295 12.8379ZM21.0162 20.9521C20.6153 21.1471 20.1278 20.9954 19.922 20.5837L19.7378 20.2154H16.932L16.7478 20.5837C16.607 20.8654 16.3145 21.0279 16.022 21.0279C15.9028 21.0279 15.7728 20.9954 15.6645 20.9412C15.2637 20.7354 15.1012 20.2479 15.2962 19.8471L17.6145 15.2212C17.7553 14.9504 18.037 14.7771 18.3403 14.7771C18.6437 14.7771 18.9253 14.9504 19.0662 15.2321L21.3845 19.8579C21.5795 20.2587 21.417 20.7462 21.0162 20.9521Z" fill="white"/>
<path d="M17.7441 18.589H18.925L18.3291 17.4082L17.7441 18.589Z" fill="white"/>
</svg>
