<svg width="21" height="21" viewBox="0 0 21 21" fill="none" xmlns="http://www.w3.org/2000/svg">
<circle cx="10.5" cy="10.5" r="10.5" fill="url(#paint0_radial_422_228)"/>
<path d="M15.294 7.75028C14.9411 7.9107 14.5607 8.01612 14.1665 8.06653C14.5698 7.82362 14.8815 7.43862 15.0282 6.9757C14.6478 7.20487 14.2261 7.36528 13.7815 7.45695C13.4194 7.06278 12.9107 6.83362 12.3332 6.83362C11.2561 6.83362 10.3761 7.71362 10.3761 8.79987C10.3761 8.9557 10.3944 9.10695 10.4265 9.24903C8.79485 9.16653 7.34193 8.38278 6.37485 7.1957C6.20526 7.48445 6.10901 7.82362 6.10901 8.18112C6.10901 8.86403 6.45276 9.46903 6.98443 9.81278C6.65901 9.81278 6.35651 9.72112 6.09068 9.58362V9.59737C6.09068 10.5507 6.76901 11.3482 7.66735 11.527C7.37893 11.6059 7.07614 11.6169 6.78276 11.559C6.90725 11.9498 7.15105 12.2916 7.47989 12.5366C7.80874 12.7816 8.20609 12.9174 8.6161 12.9249C7.92109 13.4751 7.05959 13.7725 6.17318 13.7682C6.01735 13.7682 5.86151 13.759 5.70568 13.7407C6.57651 14.2999 7.61235 14.6253 8.72151 14.6253C12.3332 14.6253 14.3178 11.6278 14.3178 9.02903C14.3178 8.94195 14.3178 8.85945 14.3132 8.77237C14.6982 8.49737 15.0282 8.14903 15.294 7.75028Z" fill="white"/>
<defs>
<radialGradient id="paint0_radial_422_228" cx="0" cy="0" r="1" gradientUnits="userSpaceOnUse" gradientTransform="translate(6.51 4.83) rotate(67.9887) scale(10.646)">
<stop stop-color="#7ED1FF"/>
<stop offset="1" stop-color="#39B1F4"/>
</radialGradient>
</defs>
</svg>
