<svg width="22" height="24" viewBox="0 0 22 24" fill="none" xmlns="http://www.w3.org/2000/svg">
<path d="M5.31821 14.0993C0.719112 9.37592 0 8.13394 0 5.75772C0.00524408 4.10761 0.715959 2.53829 1.9531 1.44614C3.19001 0.353992 4.83509 -0.156975 6.47329 0.0422986C8.11148 0.241578 9.58601 1.13217 10.5252 2.48903C11.4643 1.13217 12.9389 0.241572 14.5771 0.0422986C16.2153 -0.15698 17.8603 0.35398 19.0973 1.44614C20.3344 2.53829 21.0451 4.10767 21.0504 5.75772C21.0504 8.13744 20.3312 9.37615 15.7289 14.1028L12.8068 15.0835C12.5661 15.1671 12.344 15.2971 12.1529 15.4658C11.9489 15.3352 11.7122 15.2638 11.4698 15.2599H9.58058C9.33935 15.2599 9.10291 15.3267 8.89749 15.4528C8.70642 15.2841 8.48434 15.1541 8.24357 15.0705L5.31821 14.0993ZM18.285 15.8611V19.2016C18.285 19.635 18.1126 20.0507 17.8062 20.3574C17.4997 20.6638 17.0841 20.836 16.6506 20.836C16.4719 20.8353 16.2943 20.8065 16.1244 20.7509L13.9898 20.0286L15.33 22.4735V22.4737C15.3971 22.5953 15.3802 22.746 15.2876 22.8495C15.1944 22.9525 15.0462 22.9852 14.9183 22.9313L13.6893 22.4117L13.467 23.7191H13.4668C13.4437 23.8563 13.3361 23.964 13.1989 23.987H13.14C13.0201 23.9874 12.9098 23.9222 12.8523 23.8171L10.5251 19.5808L8.19121 23.8301C8.13375 23.9352 8.02339 24.0005 7.90369 24H7.85125C7.71399 23.977 7.60637 23.8694 7.58334 23.7321L7.36104 22.4247L6.13207 22.9444H6.13184C6.00393 22.9984 5.85573 22.9656 5.76247 22.8627C5.66991 22.759 5.65303 22.6083 5.72007 22.4868L7.06029 20.0418L4.9193 20.7509C4.7492 20.8065 4.57182 20.8353 4.39306 20.836C3.95962 20.836 3.54373 20.6638 3.23729 20.3574C2.93085 20.0507 2.7587 19.635 2.7587 19.2016V15.8611C2.7587 15.3351 3.01179 14.8415 3.43859 14.5344C3.86542 14.2275 4.414 14.1445 4.91265 14.3118L8.1291 15.3937C8.41981 15.4945 8.677 15.6744 8.87103 15.9133C9.05207 15.7109 9.3088 15.5925 9.58034 15.5866H11.4696C11.7377 15.5866 11.994 15.6965 12.1789 15.8905C12.3725 15.6561 12.6269 15.4797 12.9145 15.3805L16.1309 14.2986H16.1307C16.6293 14.1315 17.1779 14.2142 17.6047 14.5214C18.0318 14.8285 18.2846 15.3221 18.2849 15.8479L18.285 15.8611ZM7.65532 19.1298L7.92004 19.0416C8.1118 18.9736 8.27778 18.848 8.39498 18.6815C8.51217 18.5153 8.57464 18.3167 8.57373 18.1131V16.9364C8.57465 16.733 8.51217 16.5344 8.39498 16.368C8.27778 16.2018 8.11179 16.0759 7.92004 16.0082L4.71358 14.9327C4.41261 14.8264 4.07904 14.8729 3.81889 15.0576C3.55874 15.2423 3.40483 15.5421 3.40597 15.8611V19.2016C3.40483 19.5206 3.55874 19.8204 3.81889 20.0051C4.07904 20.1898 4.41262 20.2363 4.71358 20.1301L7.65532 19.1298ZM9.84214 19.4568H9.58061V19.4565C9.31202 19.4556 9.05574 19.3446 8.87131 19.1494C8.67887 19.3856 8.42396 19.5635 8.13573 19.6627L7.97567 19.7149L6.74671 21.9571L7.48543 21.6301V21.6303C7.57504 21.587 7.67992 21.587 7.76975 21.6303C7.85799 21.678 7.91933 21.7635 7.93643 21.8625L8.0705 22.66L9.84214 19.4568ZM13.0748 19.7151L12.9148 19.6629V19.6627C12.6266 19.5635 12.3716 19.3856 12.1792 19.1494C11.9947 19.3446 11.7384 19.4556 11.4699 19.4565H11.2083L12.98 22.686L13.114 21.8884C13.1311 21.7897 13.1925 21.7042 13.2807 21.6566C13.3706 21.613 13.4754 21.613 13.565 21.6566L14.3038 21.9835L13.0748 19.7151ZM17.6312 15.8611C17.6317 15.5449 17.4796 15.248 17.2227 15.0636C16.9657 14.8798 16.636 14.8312 16.3368 14.9327L13.1402 16.0148C12.9484 16.0825 12.7824 16.2084 12.6652 16.3746C12.5481 16.5411 12.4856 16.7396 12.4865 16.943V18.1198C12.4856 18.3231 12.5481 18.5217 12.6652 18.6882C12.7824 18.8544 12.9484 18.9803 13.1402 19.048L13.4083 19.1394L16.35 20.1201V20.1203C16.6508 20.2265 16.9843 20.18 17.2445 19.9953C17.5046 19.8107 17.6588 19.5108 17.6574 19.1918L17.6312 15.8611Z" fill="white"/>
</svg>
