<svg width="21" height="24" viewBox="0 0 21 24" fill="none" xmlns="http://www.w3.org/2000/svg">
<path d="M4.5 11L3.75 8.98151C3.75 8.98151 4.97424 9 5.5 9C6.02576 9 6.5 8.98151 6.5 8.98151L6 11L9 22H1L4.5 11Z" fill="white"/>
<path d="M17.6884 7.25228C17.7991 7.36276 17.6335 7.52867 17.5229 7.41818C17.4122 7.30786 17.5779 7.14179 17.6884 7.25228Z" fill="white"/>
<path d="M12.1162 14.283C12.1305 14.283 12.1447 14.2827 12.1591 14.2818C12.588 14.2584 12.9168 13.8919 12.8934 13.463C12.8564 12.7803 12.8393 12.1611 12.8394 11.6003C12.8366 9.83844 13.0085 8.65482 13.2203 7.88575V22.7979C13.2203 23.4618 13.7584 23.9999 14.4223 23.9999C15.0861 23.9999 15.6243 23.4618 15.6243 22.7979V14.313H16.0752L16.075 22.7979C16.075 23.4618 16.6131 23.9999 17.277 23.9999C17.9408 23.9999 18.479 23.4618 18.479 22.7979V10.5266L18.4789 7.88536C18.6923 8.65413 18.8602 9.83921 18.8596 11.6002C18.8596 12.161 18.8428 12.7803 18.8057 13.463C18.7824 13.8917 19.1113 14.2585 19.5404 14.2816C19.5548 14.2825 19.5691 14.2828 19.5831 14.2828C19.9934 14.2828 20.3368 13.9617 20.3591 13.5469C20.3974 12.8387 20.4148 12.1919 20.415 11.5999C20.4106 8.71676 20.0088 7.13761 19.4574 6.17889C19.1813 5.70245 18.8524 5.38587 18.5306 5.20291C18.293 5.06614 18.0685 5.00788 17.8964 4.98695C17.842 4.97439 17.7856 4.9672 17.7273 4.9672H17.0827C17.0659 5.07517 17.0423 5.22116 17.0123 5.3951C16.9886 5.53287 16.9608 5.68723 16.929 5.85362C16.7199 6.95115 16.3427 8.54976 15.8495 9.04296C15.3559 8.54959 14.9788 6.94999 14.7697 5.85247C14.7381 5.68673 14.7104 5.53305 14.6867 5.39595C14.6565 5.22168 14.6329 5.0752 14.616 4.96704H13.971C13.9126 4.96704 13.856 4.97441 13.8014 4.98696C13.6293 5.00772 13.405 5.06615 13.1674 5.20276C12.6797 5.48032 12.1983 6.04481 11.8586 7.02452C11.5157 8.00972 11.2844 9.43609 11.2832 11.5995C11.2832 12.1916 11.3009 12.8385 11.3396 13.5467C11.3627 13.9617 11.7059 14.283 12.1162 14.283ZM17.6049 7.11343C17.6044 6.66678 17.8664 6.69458 18.041 6.84641C18.1236 6.91823 18.1858 7.01767 18.192 7.10808C18.2004 7.22911 18.1085 7.33391 17.8262 7.33425C18.7663 7.33324 17.6064 8.49576 17.6054 7.55573C17.6066 8.49576 16.4441 7.33592 17.3841 7.33492C16.4439 7.33609 17.6038 6.17341 17.6049 7.11343Z" fill="white"/>
<path d="M18.037 2.18738C18.037 3.39556 17.0577 4.37493 15.8497 4.37493C14.6415 4.37493 13.6621 3.39556 13.6621 2.18738C13.6621 0.979326 14.6415 0 15.8497 0C17.0577 0 18.037 0.979369 18.037 2.18738Z" fill="white"/>
<path d="M15.7528 5.44453V5.34727L15.0888 4.96792L15.0723 4.95837V5.83343L15.7528 5.44453Z" fill="white"/>
<path d="M15.9473 5.44454L16.6278 5.83343V4.95837L16.6112 4.96792L15.9473 5.34727L15.9473 5.44454Z" fill="white"/>
<path d="M16.0451 6.17355C16.0451 6.43287 15.6562 6.43287 15.6562 6.17355C15.6562 5.9144 16.0451 5.9144 16.0451 6.17355Z" fill="white"/>
<path d="M16.0451 6.85415C16.0451 7.11347 15.6562 7.11347 15.6562 6.85415C15.6562 6.595 16.0451 6.595 16.0451 6.85415Z" fill="white"/>
<path d="M16.0451 7.63156C16.0451 7.89088 15.6562 7.89088 15.6562 7.63156C15.6562 7.37224 16.0451 7.37224 16.0451 7.63156Z" fill="white"/>
<path d="M0.790124 6.89571C0.80201 6.89739 0.813896 6.89839 0.825614 6.89839C0.944307 6.89839 1.0481 6.81117 1.06568 6.6903C1.06568 6.68996 1.07841 6.60191 1.10837 6.44069C1.21233 5.87669 1.52472 4.45067 2.16643 3.18943C2.48652 2.55861 2.88865 1.97117 3.37461 1.55049C3.86228 1.12929 4.42293 0.871977 5.10295 0.870819C5.87887 0.872159 6.50317 1.20815 7.03417 1.74069C7.82801 2.53791 8.36659 3.78025 8.69222 4.82104C8.85595 5.34154 8.96828 5.81078 9.03943 6.14909C9.07476 6.31834 9.1002 6.45461 9.11661 6.54803C9.13285 6.64161 9.13971 6.69016 9.13988 6.69016C9.15913 6.82309 9.28235 6.91499 9.41544 6.89574C9.5482 6.87649 9.64027 6.75328 9.62102 6.62052L9.62085 6.62035C9.61867 6.6088 9.3992 5.08787 8.74113 3.54604C8.41099 2.77513 7.97171 1.99685 7.37926 1.39852C6.78929 0.800709 6.02828 0.383196 5.10299 0.384525C4.17754 0.383185 3.41648 0.800705 2.82638 1.39835C1.06337 3.19367 0.59499 6.60119 0.584576 6.62005C0.565324 6.75298 0.657398 6.87636 0.790156 6.89561L0.790124 6.89571Z" fill="white"/>
<path d="M7.29095 3.59276C7.29095 4.80082 6.31158 5.78014 5.10357 5.78014C3.89538 5.78014 2.91602 4.80078 2.91602 3.59276C2.91602 2.38458 3.89538 1.40521 5.10357 1.40521C6.31162 1.40521 7.29095 2.38458 7.29095 3.59276Z" fill="white"/>
<path d="M0.739967 23.1698C0.955589 23.1698 1.15012 23.0874 1.28524 22.9563C1.42067 23.0874 1.61503 23.1698 1.83081 23.1698C2.04658 23.1698 2.24096 23.0874 2.37625 22.9563C2.50951 23.0852 2.69985 23.1668 2.91162 23.1693C2.98043 23.6389 3.38356 23.9998 3.87239 23.9998C4.37613 23.9998 4.79047 23.6166 4.83967 23.1256C4.92187 23.1537 5.0106 23.1698 5.10385 23.1698C5.12946 23.1698 5.15474 23.1685 5.17968 23.1663C5.24698 23.6375 5.65111 24 6.14096 24C6.63648 24 7.04499 23.6287 7.10473 23.1492C7.16283 23.1622 7.22326 23.1699 7.28571 23.1699C7.5015 23.1699 7.69603 23.0876 7.83115 22.9565C7.96658 23.0876 8.16094 23.1699 8.37672 23.1699C8.59217 23.1699 8.7867 23.0876 8.92199 22.9565C9.05725 23.0876 9.25195 23.1699 9.46773 23.1699C9.87554 23.1699 10.2075 22.8756 10.2075 22.5137V22.4847L10.199 22.457L6.76421 11.2091L7.58552 8.11537C7.62905 8.16794 7.66806 8.22284 7.70104 8.28094C7.92151 8.65677 8.11253 9.41631 8.21751 10.3876C8.32666 11.3609 8.36784 12.5524 8.36767 13.8492C8.36767 14.1445 8.6069 14.384 8.90253 14.384C9.19784 14.384 9.43708 14.1445 9.43708 13.8492C9.43692 12.5295 9.39624 11.3066 9.28022 10.2684C9.16002 9.22829 8.98256 8.38007 8.62999 7.7511C8.39646 7.34211 8.05442 7.04781 7.69519 6.83756C6.61421 6.21797 5.33154 6.225 5.12244 6.21729C5.11508 6.21729 5.10888 6.21729 5.10386 6.21745C5.09884 6.21729 5.09231 6.21729 5.08444 6.21729C4.94649 6.21812 4.3269 6.22515 3.61256 6.40378C3.25514 6.49385 2.87229 6.62694 2.51152 6.83771C2.15243 7.04797 1.81042 7.34214 1.57685 7.75125C1.22428 8.38022 1.04684 9.22849 0.926625 10.2686C0.810611 11.3065 0.769932 12.5295 0.76976 13.8493C0.76976 14.1446 1.00899 14.3842 1.30462 14.3842C1.59993 14.3842 1.83917 14.1446 1.83917 13.8493C1.839 12.5526 1.88035 11.3611 1.98934 10.3878C2.0943 9.41663 2.28515 8.6569 2.50581 8.28109C2.53879 8.223 2.57779 8.16809 2.62132 8.11552L3.4428 11.2091L0.00837051 22.4569L0 22.4847V22.5137C0 22.8755 0.331972 23.1698 0.739967 23.1698ZM0.194525 22.5132L3.62896 11.2658L3.6452 11.2129L3.63114 11.1593L2.8793 8.32725C3.3067 8.08417 4.14259 7.91911 5.104 7.91911C6.06529 7.91911 6.901 8.08418 7.32854 8.32725L6.5767 11.1595L6.56247 11.2131L6.57888 11.266L10.0137 22.5129C10.0137 22.7676 9.76907 22.9751 9.46838 22.9751C9.31152 22.9751 9.16202 22.9176 9.05806 22.8166L8.92279 22.6852L8.78736 22.8163C8.68306 22.9172 8.53356 22.975 8.37704 22.975C8.22068 22.975 8.07101 22.9174 7.96671 22.8163L7.83145 22.6854L7.69618 22.8163C7.59189 22.9172 7.44239 22.975 7.28586 22.975C7.2261 22.975 7.16834 22.9643 7.11293 22.9482C7.02269 22.9224 6.93982 22.8789 6.87537 22.8164L6.7401 22.6855L6.60484 22.8164C6.50054 22.9174 6.35104 22.9751 6.19468 22.9751C6.03799 22.9751 5.88849 22.9176 5.78419 22.8164L5.64893 22.6855L5.51366 22.8164C5.4241 22.9033 5.30038 22.9554 5.1683 22.9691C5.1467 22.9713 5.12544 22.975 5.10351 22.975C5.0116 22.975 4.92354 22.953 4.84436 22.9162C4.78844 22.8903 4.73638 22.858 4.69319 22.8163L4.55792 22.6854L4.42266 22.8163C4.31836 22.9172 4.16886 22.975 4.01233 22.975C3.85598 22.975 3.70631 22.9174 3.60201 22.8163L3.46658 22.6852L3.33131 22.8166C3.22752 22.9174 3.07802 22.9751 2.92132 22.9751C2.91396 22.9751 2.90709 22.9735 2.89956 22.9731C2.75107 22.9679 2.61028 22.9127 2.51083 22.8164L2.37557 22.6855L2.2403 22.8164C2.13601 22.9174 1.98651 22.9751 1.82998 22.9751C1.67329 22.9751 1.52379 22.9176 1.41949 22.8164L1.28423 22.6855L1.14896 22.8164C1.04467 22.9174 0.895334 22.9751 0.738808 22.9751C0.43814 22.9751 0.193366 22.7679 0.193366 22.5134L0.194525 22.5132Z" fill="white"/>
</svg>
