<svg width="26" height="26" viewBox="0 0 26 26" fill="none" xmlns="http://www.w3.org/2000/svg">
<path d="M13 4.33398C14.2025 4.33398 15.1667 5.29815 15.1667 6.50065C15.1667 7.70315 14.2025 8.66732 13 8.66732C11.7975 8.66732 10.8333 7.70315 10.8333 6.50065C10.8333 5.29815 11.8083 4.33398 13 4.33398ZM22.75 17.334V15.1673C20.3233 15.1673 18.2433 14.1273 16.6833 12.264L15.2317 10.5307C15.0301 10.2863 14.777 10.0897 14.4904 9.95481C14.2038 9.81995 13.8909 9.75023 13.5742 9.75065H12.4583C11.7975 9.75065 11.1908 10.0323 10.7792 10.5307L9.3275 12.264C7.75667 14.1273 5.67667 15.1673 3.25 15.1673V17.334C6.25083 17.334 8.8725 16.0665 10.8333 13.8132V16.2507L6.63 17.9298C5.90417 18.2223 5.41667 18.959 5.41667 19.7281C5.41667 20.8006 6.28333 21.6673 7.35583 21.6673H9.75V21.1257C9.75 20.4074 10.0353 19.7185 10.5433 19.2106C11.0512 18.7027 11.74 18.4173 12.4583 18.4173H15.7083C16.0117 18.4173 16.25 18.6557 16.25 18.959C16.25 19.2623 16.0117 19.5007 15.7083 19.5007H12.4583C11.5592 19.5007 10.8333 20.2265 10.8333 21.1257V21.6673H18.6442C19.7167 21.6673 20.5833 20.8006 20.5833 19.7281C20.5833 18.959 20.0958 18.2223 19.37 17.9298L15.1667 16.2507V13.8132C17.1275 16.0665 19.7492 17.334 22.75 17.334Z" fill="white"/>
</svg>
