<svg width="22" height="22" viewBox="0 0 22 22" fill="none" xmlns="http://www.w3.org/2000/svg">
<path d="M3.29677 18.8491C5.36555 20.8811 8.10134 22 11.0002 22C20.6937 22 25.6623 10.2336 18.8459 3.2935C18.8459 3.29332 18.8459 3.29332 18.8457 3.29315C16.7592 1.16965 13.9731 0 11 0C4.92921 0 0 4.92611 0 11C0.0286586 11.1373 -0.234965 15.3804 3.29624 18.8493L3.29677 18.8491ZM2.84115 14.4114C2.88483 14.4459 2.90676 14.5011 2.8983 14.5564C2.88984 14.6113 2.85255 14.6576 2.80058 14.6776L2.16009 14.9224L2.84876 15.5403C2.91229 15.5974 2.91781 15.6951 2.86067 15.759C2.80352 15.8225 2.70564 15.8279 2.64211 15.7707L1.76472 14.9836C1.67909 14.9068 1.70395 14.7654 1.81272 14.7238L2.43579 14.4856L1.60437 13.8287C1.55483 13.7895 1.53411 13.7239 1.55172 13.6636C1.5695 13.6029 1.62233 13.5592 1.68517 13.553L2.30303 13.492L1.74227 13.1131C1.70187 13.0858 1.67667 13.0411 1.67442 12.9922C1.67218 12.943 1.69272 12.8968 1.73018 12.8657L2.25917 12.427C2.32495 12.3724 2.42249 12.3816 2.47721 12.4474C2.53177 12.513 2.52279 12.6107 2.45684 12.6654L2.0867 12.9722L2.83163 13.476C2.95144 13.5569 2.90396 13.7441 2.76015 13.7582L2.09686 13.8237L2.84115 14.4114ZM3.11911 15.2326C3.03296 15.1551 3.0592 15.0139 3.16727 14.9728L3.79035 14.7344L2.95893 14.0777C2.90938 14.0385 2.88867 13.9732 2.90628 13.9125C2.92406 13.852 2.97671 13.8082 3.03955 13.802L3.65795 13.7408L3.09705 13.3617C3.05683 13.3345 3.03162 13.2897 3.0292 13.2411C3.0273 13.1925 3.0475 13.1454 3.08496 13.1143L3.61413 12.6756C3.6799 12.6211 3.77744 12.6304 3.83217 12.6962C3.88656 12.7618 3.87758 12.8595 3.8118 12.9142L3.44183 13.221L4.18676 13.7246C4.30657 13.806 4.25927 13.9926 4.11528 14.0071L3.45199 14.0725L4.19607 14.6604C4.23975 14.6949 4.26168 14.7501 4.25322 14.8054C4.24476 14.8605 4.20747 14.9066 4.15551 14.9266L3.51501 15.1714L4.20368 15.7891C4.26738 15.8464 4.27274 15.944 4.21559 16.0079C4.15845 16.0714 4.06056 16.0769 3.99703 16.0198L3.11911 15.2326ZM10.6568 21.3065C8.18249 21.2255 5.85264 20.2733 4.02999 18.5971C4.06469 18.5622 6.48514 16.139 6.33182 16.2925C7.54258 17.3609 9.0563 17.978 10.6568 18.0553L10.6568 21.3065ZM16.2794 19.5433C15.9331 19.6688 15.5678 19.631 15.2664 19.4687L13.8793 19.9711C13.7518 20.2886 13.4954 20.5515 13.1489 20.6771C13.056 20.7105 12.9524 20.662 12.9188 20.5693C12.8853 20.4763 12.9338 20.3729 13.0265 20.3392C13.4861 20.1728 13.7253 19.6618 13.5589 19.2023C13.3925 18.7428 12.8817 18.5036 12.4221 18.6699C12.3292 18.7034 12.2261 18.6568 12.192 18.5622C12.1583 18.4691 12.2068 18.3657 12.2997 18.332C12.646 18.2065 13.012 18.2461 13.3135 18.4082L14.7005 17.906C14.8282 17.5883 15.0841 17.3236 15.4302 17.1983C15.5233 17.1646 15.6267 17.2132 15.6604 17.306C15.6945 17.4006 15.6455 17.5025 15.5526 17.5362C15.0932 17.7024 14.8539 18.2134 15.0204 18.673C15.1868 19.1326 15.6976 19.3717 16.1572 19.2055C16.2501 19.1718 16.3537 19.2203 16.3874 19.3132C16.4209 19.4062 16.3724 19.5098 16.2795 19.5433L16.2794 19.5433ZM18.4618 18.1154C18.4271 18.0805 16.079 15.7298 16.1622 15.813C17.2747 14.6195 17.933 13.1029 18.0428 11.4809H21.2994C21.1847 13.9754 20.1872 16.3076 18.4618 18.1152L18.4618 18.1154ZM19.2625 7.655C19.4386 7.86459 19.7495 7.89359 19.9601 7.72026C20.1706 7.54693 20.1985 7.23309 20.0252 7.02245C19.8495 6.80958 19.5339 6.78714 19.3276 6.95736C19.243 7.02918 19.113 7.01813 19.042 6.93164C18.9895 6.86793 18.9813 6.78247 19.0149 6.71307C19.0274 6.68735 19.0451 6.66456 19.0686 6.64419C19.4603 6.32359 20.0232 6.38385 20.3386 6.76331C20.6557 7.14727 20.6017 7.71508 20.2193 8.03307C20.0035 8.21279 19.7279 8.27339 19.4702 8.22298C19.4733 8.48988 19.359 8.74454 19.1442 8.92287C18.7743 9.23017 18.2066 9.2022 17.8763 8.80461C17.5585 8.42221 17.6103 7.85594 17.9946 7.53671C18.0809 7.46575 18.2092 7.47594 18.2801 7.56226C18.3511 7.64875 18.3409 7.77685 18.2537 7.8497C18.0474 8.0201 18.0089 8.32963 18.1895 8.54544C18.3665 8.75986 18.6765 8.78455 18.8854 8.60984C19.1017 8.43132 19.1219 8.12107 18.9515 7.91494L17.858 6.5944C17.7864 6.51101 17.7964 6.38032 17.8838 6.30868C17.9701 6.23772 18.0982 6.24791 18.1693 6.3344L19.2625 7.655ZM11.3443 0.692768C13.8887 0.775291 16.2691 1.77505 18.1129 3.53547L15.8137 5.83748C14.5828 4.68683 13.018 4.02388 11.3446 3.94393L11.3443 0.692768ZM17.3709 11.1284C17.3709 11.1291 17.3705 11.1296 17.3705 11.1303C17.2982 14.6468 14.409 17.3765 11.001 17.3765C9.34173 17.3765 7.76551 16.7347 6.56236 15.5695C5.1517 14.1946 4.72768 12.7085 4.62413 10.9996C4.62413 7.53072 7.44491 4.62296 11.0008 4.62296C14.4115 4.62296 17.4163 7.37382 17.3708 11.1282L17.3709 11.1284ZM6.28073 2.86148C6.60564 2.53656 7.11096 2.50066 7.47712 2.75254L8.03408 2.19558L7.85626 2.01776C7.78203 1.94353 7.78203 1.82682 7.85626 1.75258C7.92929 1.67956 8.0472 1.67835 8.12161 1.75258L8.29926 1.9304L8.56582 1.66367C8.64005 1.58943 8.75814 1.59082 8.83117 1.66367C8.90402 1.7367 8.9054 1.85461 8.83117 1.92902L8.56461 2.19558L8.71981 2.35078C8.79405 2.42502 8.79284 2.54293 8.71981 2.61596C8.64558 2.6902 8.52887 2.6902 8.45446 2.61596L8.29926 2.46075L7.73837 3.02183C7.97057 3.38368 7.9281 3.8745 7.61113 4.1913C7.24513 4.5573 6.64831 4.5573 6.28233 4.1913C5.91477 3.82427 5.91477 3.22729 6.28077 2.86144L6.28073 2.86148ZM3.40333 4.02923L5.70795 6.33088C4.60892 7.57633 3.98739 9.14252 3.93974 10.7934H0.690302C0.739505 8.26831 1.69612 5.88583 3.40338 4.02914L3.40333 4.02923Z" fill="white"/>
<path d="M14.9368 3.23148L15.1353 2.93782C15.1981 2.84459 15.1738 2.71891 15.0807 2.65624C14.9875 2.5934 14.8618 2.61981 14.7992 2.71097L14.6006 3.0067L13.5713 2.31388L13.9928 2.23084C14.1022 2.20857 14.1732 2.10101 14.1528 1.99191C14.1305 1.88245 14.0252 1.81167 13.9137 1.83187L13.012 2.01021C12.922 2.02298 12.834 2.11621 12.852 2.23809C12.8571 2.27262 13.0327 3.1835 13.0282 3.14876C13.0483 3.24492 13.1368 3.32727 13.2672 3.3088C13.3766 3.28842 13.4476 3.18104 13.4272 3.07159L13.3442 2.65034L14.3753 3.34126L14.1768 3.637C14.114 3.73023 14.1404 3.85591 14.2315 3.91858C14.3403 3.98522 14.457 3.94689 14.5131 3.86385L14.7117 3.56811L15.2504 3.93083C15.3518 3.99592 15.4697 3.96312 15.532 3.8761C15.5928 3.78288 15.5685 3.6572 15.4752 3.59453L14.9368 3.23148Z" fill="white"/>
<path d="M7.34502 3.9267C7.56531 3.70641 7.56393 3.34716 7.34502 3.12843C7.1249 2.90814 6.76547 2.90693 6.54533 3.12705C6.32519 3.34717 6.32642 3.70642 6.54671 3.92674C6.76562 4.14547 7.12507 4.14686 7.34499 3.92674L7.34502 3.9267Z" fill="white"/>
<path d="M4.0956 8.14919C4.0956 8.06046 4.02309 7.99019 3.93435 7.99019H3.52312C3.5371 7.5976 3.60478 7.20244 3.72632 6.80984C3.75204 6.72577 3.70526 6.63702 3.62118 6.6113C3.53693 6.58558 3.44595 6.63236 3.42005 6.71661C3.29143 7.13958 3.21685 7.56496 3.2027 7.99017H2.44305C2.42907 7.56478 2.35656 7.13957 2.22569 6.71661C2.19997 6.63237 2.11106 6.58575 2.02698 6.6113C1.94274 6.63703 1.8937 6.72576 1.91943 6.80984C2.03872 7.20243 2.10882 7.59759 2.1228 7.99019H1.71174C1.623 7.99019 1.55273 8.06028 1.55273 8.14919C1.55273 8.23793 1.62283 8.3082 1.71174 8.3082H2.12314C2.10899 8.70079 2.0389 9.09595 1.91977 9.48855C1.89387 9.57245 1.94308 9.66154 2.02715 9.6895C2.10484 9.71557 2.19893 9.67155 2.22587 9.58195C2.35673 9.15898 2.42924 8.7336 2.44322 8.30821H3.20287C3.21702 8.73377 3.2916 9.15899 3.42022 9.58195C3.44439 9.66257 3.52744 9.71644 3.62135 9.6895C3.70543 9.66154 3.75221 9.57246 3.72649 9.48838C3.60495 9.09579 3.53728 8.70062 3.52329 8.30803H3.93452C4.02326 8.30803 4.0956 8.23794 4.0956 8.14919Z" fill="white"/>
<path d="M6.08266 18.4146C6.04209 18.5022 6.08007 18.6058 6.16743 18.6463L6.64201 18.8664C6.72937 18.9068 6.83313 18.869 6.87352 18.7817C7.04547 18.4107 7.48693 18.2489 7.85778 18.4209C8.22863 18.5928 8.39038 19.0343 8.21843 19.4051C8.17786 19.4926 8.21584 19.596 8.30319 19.6368L8.77795 19.8569C8.86531 19.8973 8.96889 19.8595 9.00946 19.772C9.05004 19.6844 9.01188 19.581 8.9247 19.5403L8.59547 19.3877C8.73755 18.8822 8.49568 18.3323 8.00434 18.1044C7.51284 17.8767 6.93709 18.0473 6.64306 18.4825L6.31383 18.3299C6.22681 18.2893 6.12306 18.3273 6.08266 18.4146Z" fill="white"/>
<path d="M8.68078 20.0676L6.0701 18.8572C5.98275 18.8168 5.87899 18.8547 5.83842 18.9422C5.79802 19.0295 5.836 19.1331 5.92336 19.1737L8.53403 20.3841C8.62139 20.4245 8.72514 20.3867 8.76572 20.2992C8.80611 20.2118 8.76813 20.1082 8.68078 20.0676Z" fill="white"/>
<path d="M14.6097 18.3214L13.6484 18.6695C13.7555 18.7855 13.8397 18.9232 13.8965 19.0803C13.9535 19.2374 13.9775 19.3987 13.9695 19.5563L14.9308 19.2083C14.8238 19.0923 14.739 18.953 14.682 18.7959C14.6252 18.6389 14.6018 18.479 14.6097 18.3214Z" fill="white"/>
<path d="M18.0572 13.3586C18.0708 13.3723 18.0882 13.3847 18.1081 13.3947C18.1961 13.4332 18.3004 13.3961 18.3413 13.3079C18.365 13.2545 18.4085 13.216 18.4618 13.1951C18.5166 13.1751 18.5747 13.1791 18.6281 13.2027C18.7348 13.2525 18.7831 13.3802 18.732 13.4883L18.6761 13.611L18.6536 13.6582C18.5927 13.7883 18.5865 13.9335 18.631 14.0677C18.6112 14.0725 18.5901 14.0787 18.5703 14.0861C18.3916 14.1531 18.2486 14.2857 18.168 14.4582C18.0884 14.6317 18.081 14.8252 18.1466 15.0051C18.1825 15.1033 18.2395 15.1902 18.3115 15.262C18.371 15.3217 18.4392 15.3701 18.5173 15.4062C18.7964 15.5343 19.1153 15.4687 19.3214 15.2629C19.3798 15.2047 19.4283 15.1363 19.4656 15.0569C19.565 14.8435 19.5477 14.6054 19.4424 14.413C19.5565 14.3586 19.651 14.2667 19.7069 14.144L19.728 14.0982L19.7851 13.9743C19.81 13.9221 19.8523 13.8824 19.9068 13.8626C19.9614 13.8427 20.0185 13.8453 20.0719 13.8688C20.124 13.8938 20.1635 13.936 20.1836 13.9905C20.2034 14.0452 20.2008 14.1022 20.1772 14.1556C20.1363 14.2436 20.1758 14.3481 20.2626 14.3879C20.3507 14.4288 20.455 14.3916 20.4948 14.3023C20.5596 14.1659 20.5646 14.0121 20.5138 13.8693C20.4607 13.7267 20.3564 13.6148 20.2188 13.5515C20.081 13.4881 19.9272 13.4807 19.7844 13.5339C19.643 13.5858 19.53 13.6913 19.4666 13.8291L19.4094 13.9506L19.3884 13.9964C19.3413 14.1007 19.2208 14.149 19.1165 14.1091C19.1116 14.1065 19.1078 14.1053 19.1028 14.1029C19.1016 14.1015 19.099 14.1015 19.0966 14.1015L19.0942 14.0991C19.0892 14.0963 19.0842 14.0941 19.0792 14.0915C19.0258 14.0679 18.9861 14.0231 18.9675 13.9698C18.9464 13.9165 18.949 13.8569 18.9739 13.8047L18.9949 13.759L19.0509 13.6361C19.1814 13.3519 19.0574 13.0144 18.7734 12.8837C18.6371 12.8192 18.4831 12.8142 18.3417 12.8661C18.1989 12.9193 18.086 13.0222 18.0225 13.16C17.9903 13.2295 18.0064 13.3077 18.0572 13.3586ZM18.9549 14.4214C18.9599 14.424 18.9647 14.4263 18.9709 14.4276C19.0094 14.4463 19.0441 14.4711 19.0738 14.501C19.1793 14.6067 19.2128 14.7691 19.1481 14.9103C19.0635 15.0916 18.8463 15.1721 18.6652 15.0876C18.5759 15.0479 18.5101 14.9746 18.4767 14.8839C18.442 14.7921 18.4458 14.694 18.4867 14.6061C18.5278 14.5181 18.601 14.4499 18.6916 14.4162C18.7774 14.3853 18.8692 14.3878 18.9549 14.4214Z" fill="white"/>
<path d="M9.52381 10.7007C9.80228 10.7007 10.0281 10.3825 10.0281 9.99026C10.0281 9.59784 9.80227 9.27985 9.52381 9.27985C9.24535 9.27985 9.01953 9.59785 9.01953 9.99026C9.01953 10.3823 9.24517 10.7007 9.52381 10.7007Z" fill="white"/>
<path d="M13.0964 9.98995C13.0964 10.3824 12.8706 10.7005 12.5922 10.7005C12.3137 10.7005 12.0879 10.3824 12.0879 9.98995C12.0879 9.59754 12.3137 9.27954 12.5922 9.27954C12.8706 9.27954 13.0964 9.59755 13.0964 9.98995Z" fill="white"/>
<path d="M11.1933 11.7393C11.0034 11.7393 10.8496 11.8935 10.8496 12.083C10.8496 12.2731 11.0036 12.4267 11.1933 12.4267C11.6248 12.4267 11.9757 12.0759 11.9757 11.6443C11.9757 11.2127 11.6248 10.8618 11.1933 10.8618C11.0034 10.8618 10.8496 11.0158 10.8496 11.2055C10.8496 11.3954 11.0036 11.5492 11.1933 11.5492C11.2456 11.5492 11.2881 11.5919 11.2881 11.6442C11.2883 11.6968 11.2458 11.7393 11.1933 11.7393Z" fill="white"/>
<path d="M11.185 14.3508C12.2114 14.3498 12.868 13.6249 12.6768 13.0527C11.7002 13.32 10.6699 13.32 9.69325 13.0527C9.50196 13.625 10.1585 14.35 11.185 14.3508Z" fill="white"/>
<path d="M5.46119 10.7396C5.46119 11.5173 5.94235 12.1697 6.59615 12.3168C7.12045 14.398 8.9351 15.8891 11.0578 15.8891C13.2073 15.8891 15.0047 14.3651 15.5176 12.3289C16.1668 12.1778 16.6434 11.5282 16.6434 10.7539C16.6434 9.87357 16.0305 9.15989 15.2682 9.14261C14.7744 7.99885 13.8792 7.11961 12.7899 6.66298C12.8926 6.50087 13.0185 6.34912 13.1764 6.22827C13.3273 6.11312 13.356 5.89731 13.2407 5.74662C13.1252 5.5959 12.9097 5.56707 12.7588 5.68257C12.4809 5.89509 12.2763 6.16475 12.123 6.44235C11.8416 6.37329 11.5507 6.3341 11.2544 6.32115C11.3299 6.12779 11.4459 5.94825 11.6254 5.806C11.7741 5.68826 11.7993 5.47194 11.6814 5.32311C11.5635 5.17412 11.3473 5.14943 11.1985 5.267C10.8195 5.56723 10.6196 5.95465 10.5243 6.34844C10.2749 6.37814 10.0311 6.42855 9.79389 6.49829C9.82808 6.34188 9.89437 6.17718 10.0066 6.00904C10.1119 5.8509 10.0693 5.63752 9.91129 5.53239C9.75315 5.42673 9.53977 5.46954 9.43464 5.62751C9.17136 6.02251 9.07589 6.41632 9.07796 6.77714C8.10564 7.25552 7.31113 8.07832 6.85537 9.12595C6.08402 9.1313 5.46094 9.85157 5.46094 10.7396L5.46119 10.7396ZM9.20664 7.48525C9.3123 7.77857 9.46526 8.01715 9.60009 8.16821C9.66794 8.244 9.76134 8.2825 9.8556 8.2825C9.93657 8.2825 10.0179 8.25402 10.0835 8.19601C10.2252 8.07085 10.2385 7.85401 10.1142 7.71157C10.1002 7.69552 9.93467 7.50009 9.83643 7.20243C10.0351 7.13476 10.2406 7.08383 10.4505 7.04982C10.4581 7.6527 10.6249 8.14558 10.6387 8.18527C10.7007 8.36361 10.8956 8.45942 11.0765 8.39693C11.2557 8.33443 11.3505 8.13848 11.288 7.95911C11.2851 7.951 11.1368 7.51043 11.1373 7.00337C11.3804 7.00837 11.6185 7.0372 11.8505 7.08692C11.7127 7.53043 11.687 7.88763 11.6851 7.91733C11.6732 8.10654 11.8167 8.26934 12.0059 8.2816C12.0135 8.28212 12.0209 8.28246 12.0285 8.28246C12.2079 8.28246 12.3589 8.14279 12.3712 7.96118C12.3715 7.95531 12.3938 7.65612 12.5069 7.29028C14.0063 7.91057 14.9867 9.41687 14.9867 11.1015C14.9867 13.3422 13.2451 15.2012 11.0577 15.2012C8.89401 15.2012 7.1286 13.3647 7.1286 11.1015C7.12877 9.63043 7.89116 8.21858 9.2067 7.48519L9.20664 7.48525Z" fill="white"/>
</svg>
